<svg width="921" height="933" viewBox="0 0 921 933" fill="none" xmlns="http://www.w3.org/2000/svg">
<path d="M921.001 466.5C921.001 724.141 712.142 933 454.501 933C196.86 933 -77.4327 828.5 21.5008 466.5C130.001 69.5 196.86 0 454.501 0C712.142 0 921.001 208.859 921.001 466.5Z" fill="#E5EEFC"/>
<path d="M496.807 272.621L600.489 306.543L576.042 381.268L553.361 373.847L568.599 327.271L550.779 321.441L536.799 364.169L514.119 356.749L528.098 314.02L510.278 308.19L495.106 354.563L472.425 347.143L496.807 272.621ZM467.791 361.306L571.474 395.228L562.265 423.376L481.263 396.874L467.548 438.793L444.867 431.372L467.791 361.306ZM535.618 504.821L431.935 470.899L441.145 442.751L544.827 476.673L535.618 504.821ZM509.501 507.906L532.181 515.326L502.698 605.441L480.017 598.021L490.221 566.835L409.218 540.333L418.295 512.59L499.297 539.091L509.501 507.906ZM395.549 582.112L499.232 616.035L474.784 690.759L452.104 683.339L467.342 636.762L449.522 630.932L435.542 673.661L412.861 666.24L426.841 623.511L409.021 617.681L393.848 664.055L371.168 656.634L395.549 582.112Z" fill="white"/>
<path d="M337.194 281.306L450.881 284.65L440.611 316.039L372.184 309.344L371.919 310.154L430.209 347.832L422.126 372.538L352.636 368.409L352.371 369.219L411.724 404.331L401.455 435.719L307.777 371.219L316.589 344.286L380.269 345.616L380.534 344.806L328.382 308.24L337.194 281.306ZM294.791 410.91L398.474 444.832L374.026 519.557L351.345 512.136L366.584 465.56L348.763 459.729L334.783 502.458L312.103 495.038L326.083 452.309L308.262 446.479L293.09 492.852L270.409 485.432L294.791 410.91ZM265.776 499.594L369.458 533.517L354.75 578.473C352.166 586.371 348.933 592.655 345.051 597.326C341.158 602.03 336.823 605.114 332.048 606.578C327.261 608.076 322.235 607.963 316.97 606.241C313.156 604.993 309.955 603.012 307.369 600.297C304.771 597.617 302.9 594.427 301.757 590.727C300.647 587.039 300.344 583.054 300.848 578.772L299.836 578.441C298.209 582.841 295.754 586.521 292.468 589.482C289.217 592.453 285.415 594.423 281.064 595.39C276.746 596.369 272.14 596.057 267.246 594.456C261.576 592.601 257.016 589.465 253.566 585.048C250.105 580.666 247.998 575.343 247.245 569.081C246.491 562.819 247.346 555.925 249.808 548.398L265.776 499.594ZM279.044 535.097L274.738 548.26C273.192 552.985 272.91 556.816 273.892 559.753C274.908 562.7 277.154 564.743 280.63 565.88C283.06 566.675 285.301 566.792 287.353 566.23C289.405 565.669 291.207 564.502 292.758 562.73C294.298 560.992 295.537 558.689 296.476 555.82L300.915 542.252L279.044 535.097ZM318.33 547.95L314.554 559.493C313.748 561.957 313.424 564.261 313.582 566.405C313.739 568.549 314.373 570.381 315.482 571.903C316.613 573.468 318.242 574.599 320.369 575.295C323.575 576.344 326.398 575.997 328.836 574.254C331.308 572.522 333.118 569.901 334.267 566.391L338.176 554.443L318.33 547.95Z" fill="white"/>
<path d="M322.905 106.293C326.368 107.128 329.415 106.723 332.045 105.08C334.663 103.471 336.718 100.388 338.209 95.832C339.159 92.9295 339.583 90.4341 339.481 88.3459C339.402 86.3025 338.916 84.6488 338.022 83.3848C337.128 82.1208 335.927 81.2235 334.419 80.6928C333.192 80.2167 331.99 80.0662 330.812 80.2412C329.656 80.461 328.486 81.0121 327.3 81.8946C326.149 82.7882 324.959 84.0244 323.733 85.6034C322.506 87.1824 321.237 89.121 319.925 91.4192L315.319 99.3281C312.227 104.668 309.017 109.054 305.69 112.487C302.362 115.919 298.924 118.493 295.373 120.209C291.857 121.935 288.229 122.859 284.49 122.981C280.74 123.137 276.885 122.585 272.925 121.327C266.119 119.063 260.905 115.47 257.284 110.549C253.663 105.628 251.648 99.6256 251.238 92.5419C250.817 85.4918 252.042 77.5792 254.913 68.804C257.861 59.7925 261.767 52.3647 266.631 46.5206C271.484 40.7103 277.285 36.8543 284.035 34.9527C290.807 33.0958 298.536 33.5695 307.221 36.3736L298.476 63.1043C295.248 62.2351 292.322 62.1559 289.698 62.8667C287.074 63.5775 284.786 65.0333 282.833 67.234C280.869 69.4684 279.302 72.3744 278.131 75.952C277.148 78.9558 276.697 81.5917 276.777 83.8597C276.857 86.1277 277.384 88.0002 278.358 89.4771C279.332 90.954 280.657 91.9854 282.333 92.5713C283.931 93.0565 285.486 92.9861 286.998 92.3601C288.534 91.7788 290.144 90.5121 291.829 88.56C293.547 86.6189 295.458 83.8626 297.56 80.2911L303.167 70.6921C308.162 62.1634 313.855 56.0115 320.246 52.2365C326.66 48.5062 333.912 47.983 342.001 50.667C348.593 52.7865 353.774 56.4243 357.542 61.5803C361.333 66.7811 363.579 72.99 364.282 80.2069C364.974 87.4575 363.978 95.1836 361.294 103.385C358.556 111.755 354.787 118.537 349.987 123.729C345.187 128.921 339.697 132.338 333.519 133.978C327.363 135.663 320.888 135.412 314.093 133.227L322.905 106.293ZM238.844 122.03L342.527 155.952L318.079 230.677L295.398 223.256L310.637 176.68L292.816 170.85L278.836 213.578L256.156 206.158L270.136 163.429L252.315 157.599L237.143 203.973L214.462 196.552L238.844 122.03ZM209.829 210.715L313.511 244.637L298.869 289.391C296.351 297.086 292.748 303.361 288.058 308.216C283.369 313.071 277.867 316.24 271.553 317.724C265.238 319.207 258.403 318.746 251.045 316.338C243.62 313.909 237.9 310.207 233.886 305.232C229.86 300.291 227.52 294.425 226.865 287.634C226.198 280.878 227.157 273.551 229.741 265.653L238.487 238.922L260.357 246.078L253.467 267.138C252.385 270.446 251.868 273.397 251.916 275.99C251.986 278.629 252.729 280.871 254.143 282.716C255.546 284.595 257.715 286.014 260.652 286.975C263.622 287.947 266.245 288.095 268.521 287.42C270.819 286.79 272.794 285.437 274.444 283.361C276.118 281.33 277.495 278.661 278.577 275.354L281.824 265.431L200.619 238.863L209.829 210.715ZM237.541 287.036L181.472 297.387L191.476 266.809L247.347 257.065L237.541 287.036ZM274.127 365.014L194.066 362.359L193.801 363.169L259.949 408.35L249.547 440.143L157.061 371.998L169.649 333.522L284.529 333.22L274.127 365.014ZM237.07 478.278L133.388 444.355L142.597 416.207L246.28 450.129L237.07 478.278ZM162.155 575.694L171.497 547.141C173.926 547.711 176.246 547.873 178.457 547.625C180.656 547.41 182.697 546.77 184.577 545.704C186.481 544.683 188.152 543.23 189.59 541.347C191.062 539.475 192.239 537.188 193.123 534.488C194.669 529.763 194.83 525.388 193.606 521.364C192.371 517.373 189.886 513.832 186.152 510.742C182.407 507.686 177.53 505.175 171.523 503.21C165.177 501.134 159.586 500.238 154.747 500.523C149.931 500.853 145.913 502.285 142.693 504.818C139.507 507.363 137.168 510.913 135.678 515.47C134.827 518.068 134.386 520.502 134.354 522.771C134.355 525.05 134.732 527.154 135.484 529.081C136.236 531.009 137.334 532.732 138.78 534.251C140.249 535.815 142.042 537.13 144.159 538.197L134.614 566.684C130.337 564.911 126.268 562.216 122.408 558.599C118.581 554.993 115.384 550.603 112.817 545.429C110.273 540.3 108.775 534.485 108.324 527.986C107.872 521.486 108.889 514.439 111.373 506.845C114.487 497.328 119.323 489.457 125.88 483.233C132.426 477.042 140.383 473.051 149.75 471.258C159.106 469.499 169.522 470.497 180.997 474.251C192.54 478.028 201.531 483.436 207.971 490.475C214.445 497.525 218.47 505.493 220.047 514.378C221.657 523.274 220.939 532.38 217.891 541.695C215.749 548.243 212.883 553.975 209.295 558.891C205.706 563.807 201.511 567.778 196.71 570.803C191.943 573.839 186.648 575.805 180.825 576.702C175.001 577.599 168.778 577.263 162.155 575.694ZM93.1753 567.263L196.858 601.186L172.41 675.91L149.73 668.49L164.968 621.913L147.148 616.083L133.168 658.812L110.487 651.391L124.467 608.662L106.647 602.832L91.4743 649.206L68.7937 641.785L93.1753 567.263ZM117.156 735.161C120.619 735.995 123.666 735.591 126.296 733.948C128.914 732.339 130.969 729.256 132.46 724.7C133.41 721.797 133.834 719.302 133.732 717.214C133.654 715.17 133.167 713.516 132.273 712.252C131.379 710.988 130.178 710.091 128.67 709.56C127.443 709.084 126.241 708.934 125.063 709.109C123.907 709.329 122.737 709.88 121.551 710.762C120.4 711.656 119.211 712.892 117.984 714.471C116.758 716.05 115.488 717.989 114.176 720.287L109.571 728.196C106.478 733.536 103.268 737.922 99.941 741.354C96.6136 744.787 93.1747 747.361 89.6243 749.076C86.1078 750.803 82.48 751.727 78.7412 751.849C74.9913 752.004 71.1364 751.453 67.1765 750.195C60.3698 747.93 55.1561 744.338 51.5352 739.417C47.9143 734.496 45.8989 728.493 45.489 721.409C45.068 714.359 46.293 706.447 49.164 697.672C52.1124 688.66 56.0184 681.232 60.8822 675.388C65.7349 669.578 71.5361 665.722 78.286 663.82C85.0585 661.963 92.7872 662.437 101.472 665.241L92.7267 691.972C89.4989 691.103 86.5731 691.024 83.9492 691.734C81.3254 692.445 79.037 693.901 77.084 696.102C75.1199 698.336 73.5527 701.242 72.3822 704.82C71.3994 707.823 70.948 710.459 71.028 712.727C71.1079 714.995 71.6349 716.868 72.6089 718.345C73.5829 719.822 74.9081 720.853 76.5846 721.439C78.1819 721.924 79.7369 721.854 81.2494 721.228C82.7847 720.646 84.3947 719.38 86.0796 717.428C87.7982 715.487 89.7088 712.73 91.8114 709.159L97.418 699.56C102.413 691.031 108.106 684.879 114.497 681.104C120.911 677.374 128.163 676.851 136.252 679.535C142.844 681.654 148.025 685.292 151.793 690.448C155.584 695.649 157.831 701.858 158.533 709.074C159.225 716.325 158.229 724.051 155.546 732.253C152.807 740.623 149.038 747.404 144.238 752.597C139.438 757.789 133.949 761.205 127.77 762.845C121.614 764.53 115.139 764.28 108.344 762.094L117.156 735.161Z" fill="white"/>
</svg>
