<svg width="1373" height="155" viewBox="0 0 1373 155" fill="none" xmlns="http://www.w3.org/2000/svg">
<path d="M7.04492 124H6.04492V125H7.04492V124ZM7.04492 30.9091V29.9091H6.04492V30.9091H7.04492ZM71.954 30.9091H72.954V29.9091H71.954V30.9091ZM71.954 49.1818V50.1818H72.954V49.1818H71.954ZM29.545 49.1818V48.1818H28.545V49.1818H29.545ZM29.545 68.2727H28.545V69.2727H29.545V68.2727ZM68.6359 68.2727H69.6359V67.2727H68.6359V68.2727ZM68.6359 86.5909V87.5909H69.6359V86.5909H68.6359ZM29.545 86.5909V85.5909H28.545V86.5909H29.545ZM29.545 105.727H28.545V106.727H29.545V105.727ZM71.954 105.727H72.954V104.727H71.954V105.727ZM71.954 124V125H72.954V124H71.954ZM8.04492 124V30.9091H6.04492V124H8.04492ZM7.04492 31.9091H71.954V29.9091H7.04492V31.9091ZM70.954 30.9091V49.1818H72.954V30.9091H70.954ZM71.954 48.1818H29.545V50.1818H71.954V48.1818ZM28.545 49.1818V68.2727H30.545V49.1818H28.545ZM29.545 69.2727H68.6359V67.2727H29.545V69.2727ZM67.6359 68.2727V86.5909H69.6359V68.2727H67.6359ZM68.6359 85.5909H29.545V87.5909H68.6359V85.5909ZM28.545 86.5909V105.727H30.545V86.5909H28.545ZM29.545 106.727H71.954V104.727H29.545V106.727ZM70.954 105.727V124H72.954V105.727H70.954ZM71.954 123H7.04492V125H71.954V123ZM86.045 124H85.045V125H86.045V124ZM86.045 30.9091V29.9091H85.045V30.9091H86.045ZM108.544 30.9091H109.544V29.9091H108.544V30.9091ZM108.544 105.727H107.544V106.727H108.544V105.727ZM147.272 105.727H148.272V104.727H147.272V105.727ZM147.272 124V125H148.272V124H147.272ZM87.045 124V30.9091H85.045V124H87.045ZM86.045 31.9091H108.544V29.9091H86.045V31.9091ZM107.544 30.9091V105.727H109.544V30.9091H107.544ZM108.544 106.727H147.272V104.727H108.544V106.727ZM146.272 105.727V124H148.272V105.727H146.272ZM147.272 123H86.045V125H147.272V123ZM181.419 30.9091H182.419V29.9091H181.419V30.9091ZM181.419 124V125H182.419V124H181.419ZM158.919 124H157.919V125H158.919V124ZM158.919 30.9091V29.9091H157.919V30.9091H158.919ZM180.419 30.9091V124H182.419V30.9091H180.419ZM181.419 123H158.919V125H181.419V123ZM159.919 124V30.9091H157.919V124H159.919ZM158.919 31.9091H181.419V29.9091H158.919V31.9091ZM192.499 49.1818H191.499V50.1818H192.499V49.1818ZM192.499 30.9091V29.9091H191.499V30.9091H192.499ZM271.181 30.9091H272.181V29.9091H271.181V30.9091ZM271.181 49.1818V50.1818H272.181V49.1818H271.181ZM242.954 49.1818V48.1818H241.954V49.1818H242.954ZM242.954 124V125H243.954V124H242.954ZM220.772 124H219.772V125H220.772V124ZM220.772 49.1818H221.772V48.1818H220.772V49.1818ZM193.499 49.1818V30.9091H191.499V49.1818H193.499ZM192.499 31.9091H271.181V29.9091H192.499V31.9091ZM270.181 30.9091V49.1818H272.181V30.9091H270.181ZM271.181 48.1818H242.954V50.1818H271.181V48.1818ZM241.954 49.1818V124H243.954V49.1818H241.954ZM242.954 123H220.772V125H242.954V123ZM221.772 124V49.1818H219.772V124H221.772ZM220.772 48.1818H192.499V50.1818H220.772V48.1818ZM282.169 124H281.169V125H282.169V124ZM282.169 30.9091V29.9091H281.169V30.9091H282.169ZM347.079 30.9091H348.079V29.9091H347.079V30.9091ZM347.079 49.1818V50.1818H348.079V49.1818H347.079ZM304.669 49.1818V48.1818H303.669V49.1818H304.669ZM304.669 68.2727H303.669V69.2727H304.669V68.2727ZM343.76 68.2727H344.76V67.2727H343.76V68.2727ZM343.76 86.5909V87.5909H344.76V86.5909H343.76ZM304.669 86.5909V85.5909H303.669V86.5909H304.669ZM304.669 105.727H303.669V106.727H304.669V105.727ZM347.079 105.727H348.079V104.727H347.079V105.727ZM347.079 124V125H348.079V124H347.079ZM283.169 124V30.9091H281.169V124H283.169ZM282.169 31.9091H347.079V29.9091H282.169V31.9091ZM346.079 30.9091V49.1818H348.079V30.9091H346.079ZM347.079 48.1818H304.669V50.1818H347.079V48.1818ZM303.669 49.1818V68.2727H305.669V49.1818H303.669ZM304.669 69.2727H343.76V67.2727H304.669V69.2727ZM342.76 68.2727V86.5909H344.76V68.2727H342.76ZM343.76 85.5909H304.669V87.5909H343.76V85.5909ZM303.669 86.5909V105.727H305.669V86.5909H303.669ZM304.669 106.727H347.079V104.727H304.669V106.727ZM346.079 105.727V124H348.079V105.727H346.079ZM347.079 123H282.169V125H347.079V123Z" fill="white" fill-opacity="0.1"/>
<path d="M427.42 124.091L426.46 124.37L426.67 125.091H427.42V124.091ZM400.33 31V30H399L399.37 31.2794L400.33 31ZM425.2 31L426.17 30.7756L425.99 30H425.2V31ZM439.24 92L438.27 92.2244L438.45 93H439.24V92ZM440.01 92V93H440.79L440.98 92.2544L440.01 92ZM456.06 31V30H455.29L455.09 30.7456L456.06 31ZM476.33 31L477.3 30.7461L477.1 30H476.33V31ZM492.38 92.1364L491.41 92.3902L491.61 93.1364H492.38V92.1364ZM493.15 92.1364V93.1364H493.95L494.13 92.3609L493.15 92.1364ZM507.24 31V30H506.45L506.27 30.7754L507.24 31ZM532.06 31L533.02 31.279L533.39 30H532.06V31ZM505.01 124.091V125.091H505.77L505.97 124.37L505.01 124.091ZM483.33 124.091L482.37 124.376L482.59 125.091H483.33V124.091ZM466.56 67.6364L467.52 67.3516L467.31 66.6364H466.56V67.6364ZM465.83 67.6364V66.6364H465.09L464.87 67.3516L465.83 67.6364ZM449.06 124.091V125.091H449.81L450.02 124.376L449.06 124.091ZM428.38 123.812L401.29 30.7206L399.37 31.2794L426.46 124.37L428.38 123.812ZM400.33 32H425.2V30H400.33V32ZM424.22 31.2244L438.27 92.2244L440.22 91.7756L426.17 30.7756L424.22 31.2244ZM439.24 93H440.01V91H439.24V93ZM440.98 92.2544L457.03 31.2544L455.09 30.7456L439.05 91.7456L440.98 92.2544ZM456.06 32H476.33V30H456.06V32ZM475.37 31.2538L491.41 92.3902L493.35 91.8825L477.3 30.7461L475.37 31.2538ZM492.38 93.1364H493.15V91.1364H492.38V93.1364ZM494.13 92.3609L508.22 31.2246L506.27 30.7754L492.18 91.9118L494.13 92.3609ZM507.24 32H532.06V30H507.24V32ZM531.1 30.721L504.05 123.812L505.97 124.37L533.02 31.279L531.1 30.721ZM505.01 123.091H483.33V125.091H505.01V123.091ZM484.29 123.806L467.52 67.3516L465.6 67.9211L482.37 124.376L484.29 123.806ZM466.56 66.6364H465.83V68.6364H466.56V66.6364ZM464.87 67.3516L448.1 123.806L450.02 124.376L466.79 67.9211L464.87 67.3516ZM449.06 123.091H427.42V125.091H449.06V123.091ZM541.36 124.091H540.36V125.091H541.36V124.091ZM541.36 31V30H540.36V31H541.36ZM606.26 31H607.26V30H606.26V31ZM606.26 49.2727V50.2727H607.26V49.2727H606.26ZM563.86 49.2727V48.2727H562.86V49.2727H563.86ZM563.86 68.3636H562.86V69.3636H563.86V68.3636ZM602.95 68.3636H603.95V67.3636H602.95V68.3636ZM602.95 86.6818V87.6818H603.95V86.6818H602.95ZM563.86 86.6818V85.6818H562.86V86.6818H563.86ZM563.86 105.818H562.86V106.818H563.86V105.818ZM606.26 105.818H607.26V104.818H606.26V105.818ZM606.26 124.091V125.091H607.26V124.091H606.26ZM542.36 124.091V31H540.36V124.091H542.36ZM541.36 32H606.26V30H541.36V32ZM605.26 31V49.2727H607.26V31H605.26ZM606.26 48.2727H563.86V50.2727H606.26V48.2727ZM562.86 49.2727V68.3636H564.86V49.2727H562.86ZM563.86 69.3636H602.95V67.3636H563.86V69.3636ZM601.95 68.3636V86.6818H603.95V68.3636H601.95ZM602.95 85.6818H563.86V87.6818H602.95V85.6818ZM562.86 86.6818V105.818H564.86V86.6818H562.86ZM563.86 106.818H606.26V104.818H563.86V106.818ZM605.26 105.818V124.091H607.26V105.818H605.26ZM606.26 123.091H541.36V125.091H606.26V123.091ZM620.36 124.091H619.36V125.091H620.36V124.091ZM620.36 31V30H619.36V31H620.36ZM676.67 33.9545L676.29 34.8767V34.8776L676.67 33.9545ZM687.31 42.2273L686.48 42.782V42.7869L687.31 42.2273ZM688.67 64.0454L689.55 64.5195L689.56 64.5155L688.67 64.0454ZM682.54 70.9091L681.97 70.089L682.54 70.9091ZM673.49 74.7273L673.28 73.7491L672.49 73.9173V74.7273H673.49ZM673.49 75.6364H672.49V76.5891L673.44 76.6352L673.49 75.6364ZM683.9 78.6818L683.4 79.5465V79.5485L683.9 78.6818ZM691.63 86.4091L690.77 86.9154V86.9189L691.63 86.4091ZM690.72 111.455L691.56 112V111.997L690.72 111.455ZM679.67 120.727L680.1 121.634V121.632L679.67 120.727ZM642.86 105.955H641.86V106.955H642.86V105.955ZM667.54 103.182L666.92 102.398L666.91 102.402L667.54 103.182ZM669.36 89.2727L668.51 89.8105L668.52 89.8172L669.36 89.2727ZM664.58 85.2273L664.16 86.1321L664.17 86.1372L664.58 85.2273ZM642.86 83.7727V82.7727H641.86V83.7727H642.86ZM642.86 69.2727H641.86V70.2727H642.86V69.2727ZM666.31 64.5L665.49 63.9233V63.9341L666.31 64.5ZM664.63 51.5454L665.26 50.7677L664.63 51.5454ZM642.86 48.8636V47.8636H641.86V48.8636H642.86ZM621.36 124.091V31H619.36V124.091H621.36ZM620.36 32H659.17V30H620.36V32ZM659.17 32C666.06 32 671.75 32.9736 676.29 34.8767L677.06 33.0323C672.2 30.9961 666.23 30 659.17 30V32ZM676.29 34.8776C680.87 36.7869 684.24 39.4315 686.48 42.782L688.14 41.6726C685.65 37.9321 681.93 35.0615 677.06 33.0315L676.29 34.8776ZM686.48 42.7869C688.75 46.152 689.9 50.0593 689.9 54.5454H691.9C691.9 49.6983 690.65 45.3934 688.14 41.6677L686.48 42.7869ZM689.9 54.5454C689.9 57.9473 689.19 60.9492 687.79 63.5754L689.56 64.5155C691.13 61.566 691.9 58.2345 691.9 54.5454H689.9ZM687.79 63.5713C686.38 66.189 684.44 68.359 681.97 70.089L683.11 71.7292C685.84 69.8228 687.99 67.4171 689.55 64.5195L687.79 63.5713ZM681.97 70.089C679.48 71.8232 676.59 73.0468 673.28 73.7491L673.7 75.7054C677.24 74.9532 680.38 73.6314 683.11 71.7292L681.97 70.089ZM672.49 74.7273V75.6364H674.49V74.7273H672.49ZM673.44 76.6352C677.04 76.8094 680.36 77.7803 683.4 79.5465L684.4 77.8171C681.08 75.8864 677.45 74.8269 673.54 74.6375L673.44 76.6352ZM683.4 79.5485C686.46 81.3075 688.91 83.7568 690.77 86.9154L692.49 85.9028C690.47 82.4553 687.77 79.7531 684.4 77.8151L683.4 79.5485ZM690.77 86.9189C692.6 90.0116 693.54 93.7076 693.54 98.0454H695.54C695.54 93.4136 694.53 89.352 692.49 85.8993L690.77 86.9189ZM693.54 98.0454C693.54 102.866 692.31 107.145 689.88 110.912L691.56 111.997C694.22 107.885 695.54 103.225 695.54 98.0454H693.54ZM689.88 110.909C687.45 114.642 683.92 117.618 679.25 119.823L680.1 121.632C685.06 119.291 688.9 116.086 691.56 112L689.88 110.909ZM679.25 119.821C674.6 121.986 668.9 123.091 662.13 123.091V125.091C669.11 125.091 675.11 123.953 680.1 121.634L679.25 119.821ZM662.13 123.091H620.36V125.091H662.13V123.091ZM642.86 106.955H656.76V104.955H642.86V106.955ZM656.76 106.955C661.73 106.955 665.6 106.02 668.16 103.962L666.91 102.402C664.87 104.041 661.55 104.955 656.76 104.955V106.955ZM668.16 103.966C670.76 101.905 672.04 99.0249 672.04 95.4545H670.04C670.04 98.4903 668.98 100.762 666.92 102.398L668.16 103.966ZM672.04 95.4545C672.04 92.8994 671.44 90.6426 670.19 88.7282L668.52 89.8172C669.52 91.3574 670.04 93.2218 670.04 95.4545H672.04ZM670.2 88.7349C668.96 86.8005 667.22 85.3296 665 84.3174L664.17 86.1372C666.07 87.0037 667.5 88.2298 668.51 89.8105L670.2 88.7349ZM665.01 84.3224C662.78 83.2758 660.16 82.7727 657.17 82.7727V84.7727C659.94 84.7727 662.26 85.2393 664.16 86.1321L665.01 84.3224ZM657.17 82.7727H642.86V84.7727H657.17V82.7727ZM641.86 83.7727V105.955H643.86V83.7727H641.86ZM642.86 70.2727H655.31V68.2727H642.86V70.2727ZM655.31 70.2727C657.88 70.2727 660.2 69.8449 662.25 68.9646L661.46 67.1263C659.7 67.8823 657.65 68.2727 655.31 68.2727V70.2727ZM662.25 68.9646C664.31 68.0801 665.96 66.784 667.13 65.0658L665.49 63.9341C664.54 65.3068 663.22 66.3744 661.46 67.1263L662.25 68.9646ZM667.13 65.0767C668.35 63.3376 668.95 61.2647 668.95 58.9091H666.95C666.95 60.9171 666.45 62.5715 665.49 63.9233L667.13 65.0767ZM668.95 58.9091C668.95 55.5193 667.73 52.7655 665.26 50.7677L664 52.3232C665.95 53.9011 666.95 56.0564 666.95 58.9091H668.95ZM665.26 50.7677C662.82 48.7956 659.59 47.8636 655.67 47.8636V49.8636C659.28 49.8636 662.02 50.7195 664 52.3232L665.26 50.7677ZM655.67 47.8636H642.86V49.8636H655.67V47.8636ZM641.86 48.8636V69.2727H643.86V48.8636H641.86Z" fill="white" fill-opacity="0.1"/>
<path d="M788.013 60.1818L787.017 60.2723L787.099 61.1818H788.013V60.1818ZM783.967 52.4091L783.345 53.192L783.356 53.2006L783.967 52.4091ZM762.194 53.8636L762.997 54.4606L763.003 54.4518L762.194 53.8636ZM760.694 58.3636L761.694 58.407V58.3943V58.3815L760.694 58.3636ZM761.513 62.0454L760.644 62.5416L760.65 62.5508L760.655 62.5599L761.513 62.0454ZM764.24 64.8636L763.671 65.6858L763.683 65.6941L763.695 65.702L764.24 64.8636ZM774.331 68.5454L774.552 67.5702L774.54 67.5676L774.331 68.5454ZM782.331 70.3636L782.109 71.3388L782.119 71.3408L782.331 70.3636ZM794.513 74.3636L794.084 75.2672L794.087 75.2686L794.513 74.3636ZM803.422 80.3181L802.728 81.0388L802.733 81.0431L803.422 80.3181ZM810.831 98.3636L811.831 98.3688V98.3555L810.831 98.3636ZM793.694 123.182L793.318 122.256L793.316 122.257L793.694 123.182ZM735.013 94.3636V93.3636H734L734.013 94.3761L735.013 94.3636ZM756.558 94.3636L757.556 94.3031L757.499 93.3636H756.558V94.3636ZM764.831 106.409L764.448 107.333L764.452 107.335L764.831 106.409ZM781.285 106.728L780.93 105.793L780.925 105.795L781.285 106.728ZM788.013 98.3181L789.013 98.3343V98.3176L789.012 98.3009L788.013 98.3181ZM786.376 93.8181L785.608 94.4584L785.616 94.4674L786.376 93.8181ZM781.467 90.5454L781.072 91.4639L781.079 91.4672L781.087 91.4704L781.467 90.5454ZM773.104 87.9545L772.876 88.9283L772.877 88.9286L773.104 87.9545ZM763.376 85.6818L763.604 84.708L763.6 84.7071L763.376 85.6818ZM744.331 76.7272L743.664 77.4722L743.666 77.4746L744.331 76.7272ZM737.422 59.9091L738.422 59.9133V59.9038L737.422 59.9091ZM792.649 34.6818L792.229 35.5893L792.235 35.5921L792.649 34.6818ZM809.558 60.1818V61.1818H810.569L810.558 60.1713L809.558 60.1818ZM789.009 60.0912C788.683 56.5137 787.217 53.6551 784.578 51.6175L783.356 53.2006C785.505 54.8599 786.736 57.1832 787.017 60.2723L789.009 60.0912ZM784.589 51.6262C781.984 49.5553 778.351 48.5909 773.831 48.5909V50.5909C778.098 50.5909 781.223 51.5053 783.345 53.192L784.589 51.6262ZM773.831 48.5909C770.843 48.5909 768.286 48.9788 766.194 49.7958L766.922 51.6587C768.709 50.9605 771 50.5909 773.831 50.5909V48.5909ZM766.194 49.7958C764.123 50.6047 762.494 51.7515 761.386 53.2754L763.003 54.4518C763.834 53.309 765.114 52.3649 766.922 51.6587L766.194 49.7958ZM761.392 53.2666C760.292 54.7451 759.728 56.4498 759.695 58.3457L761.694 58.3815C761.721 56.8834 762.158 55.5881 762.997 54.4606L761.392 53.2666ZM759.695 58.3202C759.628 59.8752 759.932 61.2947 760.644 62.5416L762.381 61.5493C761.881 60.6749 761.64 59.6398 761.694 58.407L759.695 58.3202ZM760.655 62.5599C761.376 63.7606 762.391 64.7997 763.671 65.6858L764.809 64.0414C763.725 63.2911 762.922 62.4514 762.37 61.5309L760.655 62.5599ZM763.695 65.702C764.986 66.5413 766.514 67.2701 768.267 67.8962L768.94 66.0128C767.299 65.4268 765.918 64.7617 764.785 64.0252L763.695 65.702ZM768.267 67.8962C770.013 68.5197 771.965 69.0612 774.121 69.5232L774.54 67.5676C772.454 67.1205 770.588 66.6014 768.94 66.0128L768.267 67.8962ZM774.109 69.5205L782.109 71.3388L782.552 69.3885L774.552 67.5702L774.109 69.5205ZM782.119 71.3408C786.665 72.3279 790.651 73.6393 794.084 75.2672L794.941 73.46C791.344 71.7546 787.209 70.3993 782.543 69.3864L782.119 71.3408ZM794.087 75.2686C797.551 76.897 800.426 78.8236 802.728 81.0388L804.115 79.5975C801.63 77.2066 798.565 75.1636 794.938 73.4586L794.087 75.2686ZM802.733 81.0431C805.059 83.2527 806.811 85.7885 807.998 88.6553L809.846 87.8901C808.548 84.7568 806.633 81.9896 804.11 79.5931L802.733 81.0431ZM807.998 88.6553C809.184 91.5203 809.801 94.7542 809.831 98.3717L811.831 98.3555C811.8 94.5185 811.144 91.0251 809.846 87.8901L807.998 88.6553ZM809.831 98.3584C809.801 104.065 808.363 108.906 805.556 112.928L807.196 114.073C810.268 109.671 811.8 104.421 811.831 98.3688L809.831 98.3584ZM805.556 112.928C802.744 116.958 798.683 120.074 793.318 122.256L794.071 124.109C799.736 121.805 804.13 118.467 807.196 114.073L805.556 112.928ZM793.316 122.257C787.982 124.437 781.497 125.546 773.831 125.546V127.546C781.68 127.546 788.437 126.412 794.073 124.108L793.316 122.257ZM773.831 125.546C766.14 125.546 759.485 124.394 753.841 122.118L753.093 123.973C759.025 126.365 765.945 127.546 773.831 127.546V125.546ZM753.841 122.118C748.221 119.853 743.887 116.428 740.796 111.85L739.138 112.969C742.472 117.906 747.137 121.572 753.093 123.973L753.841 122.118ZM740.796 111.85C737.719 107.292 736.102 101.481 736.013 94.3511L734.013 94.3761C734.105 101.792 735.791 108.011 739.138 112.969L740.796 111.85ZM735.013 95.3636H756.558V93.3636H735.013V95.3636ZM755.56 94.4241C755.751 97.5691 756.598 100.26 758.153 102.444L759.782 101.284C758.488 99.4671 757.729 97.1581 757.556 94.3031L755.56 94.4241ZM758.153 102.444C759.696 104.611 761.807 106.238 764.448 107.333L765.214 105.486C762.885 104.52 761.087 103.117 759.782 101.284L758.153 102.444ZM764.452 107.335C767.11 108.424 770.152 108.955 773.558 108.955V106.955C770.358 106.955 767.582 106.456 765.21 105.484L764.452 107.335ZM773.558 108.955C776.673 108.955 779.378 108.535 781.645 107.661L780.925 105.795C778.95 106.556 776.504 106.955 773.558 106.955V108.955ZM781.641 107.662C783.921 106.795 785.736 105.566 787.024 103.939L785.456 102.698C784.44 103.981 782.953 105.024 780.93 105.793L781.641 107.662ZM787.024 103.939C788.314 102.31 788.979 100.43 789.013 98.3343L787.013 98.302C786.986 99.9641 786.469 101.418 785.456 102.698L787.024 103.939ZM789.012 98.3009C788.979 96.3302 788.36 94.6017 787.137 93.1689L785.616 94.4674C786.514 95.5194 786.986 96.7909 787.013 98.3354L789.012 98.3009ZM787.144 93.178C785.944 91.737 784.148 90.5659 781.847 89.6205L781.087 91.4704C783.211 92.3432 784.688 93.354 785.608 94.4584L787.144 93.178ZM781.863 89.6269C779.607 88.6559 776.757 87.7761 773.33 86.9804L772.877 88.9286C776.238 89.7086 778.963 90.5562 781.072 91.4639L781.863 89.6269ZM773.331 86.9807L763.604 84.708L763.149 86.6556L772.876 88.9283L773.331 86.9807ZM763.6 84.7071C755.65 82.8841 749.471 79.9584 744.995 75.9798L743.666 77.4746C748.463 81.7385 754.981 84.7825 763.153 86.6565L763.6 84.7071ZM744.998 75.9822C740.604 72.0482 738.392 66.7308 738.422 59.9133L736.422 59.9048C736.39 67.2085 738.785 73.1033 743.664 77.4722L744.998 75.9822ZM738.422 59.9038C738.392 54.3403 739.882 49.5051 742.87 45.3571L741.247 44.1882C737.992 48.7069 736.39 53.9627 736.422 59.9143L738.422 59.9038ZM742.87 45.3571C745.874 41.1865 750.042 37.9136 755.415 35.5518L754.61 33.7209C748.953 36.2075 744.485 39.6922 741.247 44.1882L742.87 45.3571ZM755.415 35.5518C760.783 33.1921 766.931 32 773.876 32V30C766.701 30 760.272 31.2321 754.61 33.7209L755.415 35.5518ZM773.876 32C780.976 32 787.085 33.2082 792.229 35.5893L793.069 33.7743C787.607 31.2463 781.2 30 773.876 30V32ZM792.235 35.5921C797.418 37.948 801.402 41.2422 804.227 45.4651L805.889 44.353C802.835 39.7881 798.547 36.2641 793.063 33.7714L792.235 35.5921ZM804.227 45.4651C807.048 49.6822 808.499 54.5796 808.558 60.1922L810.558 60.1713C810.496 54.2082 808.947 48.9238 805.889 44.353L804.227 45.4651ZM809.558 59.1818H788.013V61.1818H809.558V59.1818ZM822.194 125.364H821.194V126.364H822.194V125.364ZM822.194 32.2727V31.2727H821.194V32.2727H822.194ZM887.104 32.2727H888.104V31.2727H887.104V32.2727ZM887.104 50.5454V51.5454H888.104V50.5454H887.104ZM844.694 50.5454V49.5454H843.694V50.5454H844.694ZM844.694 69.6363H843.694V70.6363H844.694V69.6363ZM883.785 69.6363H884.785V68.6363H883.785V69.6363ZM883.785 87.9545V88.9545H884.785V87.9545H883.785ZM844.694 87.9545V86.9545H843.694V87.9545H844.694ZM844.694 107.091H843.694V108.091H844.694V107.091ZM887.104 107.091H888.104V106.091H887.104V107.091ZM887.104 125.364V126.364H888.104V125.364H887.104ZM823.194 125.364V32.2727H821.194V125.364H823.194ZM822.194 33.2727H887.104V31.2727H822.194V33.2727ZM886.104 32.2727V50.5454H888.104V32.2727H886.104ZM887.104 49.5454H844.694V51.5454H887.104V49.5454ZM843.694 50.5454V69.6363H845.694V50.5454H843.694ZM844.694 70.6363H883.785V68.6363H844.694V70.6363ZM882.785 69.6363V87.9545H884.785V69.6363H882.785ZM883.785 86.9545H844.694V88.9545H883.785V86.9545ZM843.694 87.9545V107.091H845.694V87.9545H843.694ZM844.694 108.091H887.104V106.091H844.694V108.091ZM886.104 107.091V125.364H888.104V107.091H886.104ZM887.104 124.364H822.194V126.364H887.104V124.364ZM901.194 125.364H900.194V126.364H901.194V125.364ZM901.194 32.2727V31.2727H900.194V32.2727H901.194ZM957.694 36.0454L957.249 36.9409L957.256 36.9441L957.694 36.0454ZM969.467 46.7727L968.606 47.2814L968.608 47.2839L969.467 46.7727ZM969.376 79.7272L970.223 80.2593L970.225 80.2567L969.376 79.7272ZM957.376 90L957.787 90.9118L957.791 90.9098L957.376 90ZM914.649 93.5H913.649V94.5H914.649V93.5ZM914.649 75.7727V74.7727H913.649V75.7727H914.649ZM943.285 74.4545L943.646 75.3872L943.653 75.3847L943.285 74.4545ZM948.513 70.3636L949.351 70.9086L949.355 70.9023L948.513 70.3636ZM948.513 56.1363L947.662 56.6627L947.666 56.6688L948.513 56.1363ZM943.285 51.8636L942.897 52.7853L942.908 52.7895L943.285 51.8636ZM923.694 50.4091V49.4091H922.694V50.4091H923.694ZM923.694 125.364V126.364H924.694V125.364H923.694ZM953.604 82.8181L954.482 82.3397L954.197 81.8181H953.604V82.8181ZM976.785 125.364V126.364H978.469L977.663 124.886L976.785 125.364ZM952.24 125.364L951.358 125.835L951.64 126.364H952.24V125.364ZM929.513 82.8181V81.8181H927.845L928.631 83.2893L929.513 82.8181ZM902.194 125.364V32.2727H900.194V125.364H902.194ZM901.194 33.2727H939.649V31.2727H901.194V33.2727ZM939.649 33.2727C946.5 33.2727 952.356 34.5087 957.249 36.9409L958.14 35.1499C952.912 32.5519 946.738 31.2727 939.649 31.2727V33.2727ZM957.256 36.9441C962.179 39.3472 965.953 42.7911 968.606 47.2814L970.328 46.264C967.466 41.4209 963.392 37.7134 958.133 35.1468L957.256 36.9441ZM968.608 47.2839C971.258 51.7398 972.604 57.0564 972.604 63.2727H974.604C974.604 56.7617 973.192 51.0783 970.327 46.2615L968.608 47.2839ZM972.604 63.2727C972.604 69.58 971.228 74.8722 968.528 79.1977L970.225 80.2567C973.161 75.5519 974.604 69.8744 974.604 63.2727H972.604ZM968.53 79.1952C965.823 83.5021 961.979 86.8012 956.961 89.0901L957.791 90.9098C963.137 88.4715 967.293 84.9221 970.223 80.2593L968.53 79.1952ZM956.966 89.0881C951.941 91.3508 945.951 92.5 938.967 92.5V94.5C946.166 94.5 952.448 93.3158 957.787 90.9118L956.966 89.0881ZM938.967 92.5H914.649V94.5H938.967V92.5ZM915.649 93.5V75.7727H913.649V93.5H915.649ZM914.649 76.7727H934.785V74.7727H914.649V76.7727ZM934.785 76.7727C938.258 76.7727 941.223 76.3242 943.646 75.3872L942.925 73.5218C940.803 74.3424 938.101 74.7727 934.785 74.7727V76.7727ZM943.653 75.3847C946.12 74.4105 948.04 72.925 949.351 70.9086L947.674 69.8186C946.621 71.4386 945.056 72.6803 942.918 73.5244L943.653 75.3847ZM949.355 70.9023C950.667 68.8499 951.285 66.2839 951.285 63.2727H949.285C949.285 66.0191 948.722 68.1803 947.67 69.8249L949.355 70.9023ZM951.285 63.2727C951.285 60.2605 950.667 57.6831 949.359 55.6039L947.666 56.6688C948.722 58.3472 949.285 60.5273 949.285 63.2727H951.285ZM949.363 55.61C948.058 53.5017 946.14 51.9479 943.663 50.9377L942.908 52.7895C945.037 53.6581 946.604 54.9527 947.662 56.6627L949.363 55.61ZM943.673 50.942C941.213 49.906 938.239 49.4091 934.785 49.4091V51.4091C938.059 51.4091 940.752 51.8819 942.897 52.7853L943.673 50.942ZM934.785 49.4091H923.694V51.4091H934.785V49.4091ZM922.694 50.4091V125.364H924.694V50.4091H922.694ZM923.694 124.364H901.194V126.364H923.694V124.364ZM952.725 83.2966L975.907 125.842L977.663 124.886L954.482 82.3397L952.725 83.2966ZM976.785 124.364H952.24V126.364H976.785V124.364ZM953.122 124.893L930.395 82.347L928.631 83.2893L951.358 125.835L953.122 124.893ZM929.513 83.8181H953.604V81.8181H929.513V83.8181ZM1004.33 32.2727L1005.29 31.9807L1005.07 31.2727H1004.33V32.2727ZM1025.15 100.454L1024.19 100.746L1024.41 101.455H1025.15V100.454ZM1025.92 100.454V101.455H1026.66L1026.88 100.746L1025.92 100.454ZM1046.74 32.2727V31.2727H1046L1045.78 31.9807L1046.74 32.2727ZM1071.92 32.2727L1072.87 32.5924L1073.32 31.2727H1071.92V32.2727ZM1040.51 125.364V126.364H1041.23L1041.46 125.684L1040.51 125.364ZM1010.56 125.364L1009.61 125.684L1009.84 126.364H1010.56V125.364ZM979.149 32.2727V31.2727H977.756L978.201 32.5924L979.149 32.2727ZM1003.37 32.5647L1024.19 100.746L1026.1 100.162L1005.29 31.9807L1003.37 32.5647ZM1025.15 101.455H1025.92V99.4545H1025.15V101.455ZM1026.88 100.746L1047.7 32.5647L1045.78 31.9807L1024.96 100.162L1026.88 100.746ZM1046.74 33.2727H1071.92V31.2727H1046.74V33.2727ZM1070.97 31.953L1039.57 125.044L1041.46 125.684L1072.87 32.5924L1070.97 31.953ZM1040.51 124.364H1010.56V126.364H1040.51V124.364ZM1011.51 125.044L980.097 31.953L978.201 32.5924L1009.61 125.684L1011.51 125.044ZM979.149 33.2727H1004.33V31.2727H979.149V33.2727ZM1104.44 32.2727H1105.44V31.2727H1104.44V32.2727ZM1104.44 125.364V126.364H1105.44V125.364H1104.44ZM1081.94 125.364H1080.94V126.364H1081.94V125.364ZM1081.94 32.2727V31.2727H1080.94V32.2727H1081.94ZM1103.44 32.2727V125.364H1105.44V32.2727H1103.44ZM1104.44 124.364H1081.94V126.364H1104.44V124.364ZM1082.94 125.364V32.2727H1080.94V125.364H1082.94ZM1081.94 33.2727H1104.44V31.2727H1081.94V33.2727ZM1203.07 66V67H1204.17L1204.07 65.9026L1203.07 66ZM1180.34 66L1179.35 66.1287L1179.46 67H1180.34V66ZM1169.25 51.8181L1168.92 52.7626L1168.93 52.7655L1168.94 52.7682L1169.25 51.8181ZM1150.61 54.0454L1150.05 53.2169L1150.05 53.2194L1150.61 54.0454ZM1143.11 63.6363L1142.19 63.2489L1142.19 63.2546L1143.11 63.6363ZM1143.16 94.3636L1142.24 94.7511L1142.24 94.7591L1143.16 94.3636ZM1150.66 103.773L1150.11 104.608L1150.12 104.614L1150.66 103.773ZM1168.93 105.955L1168.64 104.999L1168.63 105.001L1168.93 105.955ZM1174.34 103.182L1174.96 103.969L1174.96 103.967L1174.34 103.182ZM1178.21 98.6818L1177.34 98.1825L1177.34 98.1873L1178.21 98.6818ZM1180.34 92.6363L1180.35 91.6363L1179.5 91.6313L1179.36 92.4633L1180.34 92.6363ZM1203.07 92.7727L1204.07 92.8678L1204.17 91.7793L1203.08 91.7727L1203.07 92.7727ZM1199.48 104.955L1198.58 104.508L1198.58 104.513L1199.48 104.955ZM1191.34 115.909L1192.03 116.635L1192.03 116.632L1191.34 115.909ZM1178.71 123.728L1178.34 122.796L1178.34 122.797L1178.71 123.728ZM1139.07 121.091L1138.58 121.963L1138.58 121.966L1139.07 121.091ZM1177.34 33.3636L1177.03 34.3135L1177.03 34.3153L1177.34 33.3636ZM1189.98 40.1818L1189.34 40.9532L1189.35 40.9563L1189.98 40.1818ZM1203.07 65H1180.34V67H1203.07V65ZM1181.33 65.8712C1181.02 63.4402 1180.37 61.2246 1179.37 59.2346L1177.58 60.129C1178.47 61.8966 1179.06 63.8931 1179.35 66.1287L1181.33 65.8712ZM1179.37 59.2346C1178.38 57.2411 1177.05 55.5287 1175.4 54.1064L1174.1 55.6208C1175.54 56.8652 1176.7 58.3649 1177.58 60.129L1179.37 59.2346ZM1175.4 54.1064C1173.75 52.6792 1171.8 51.6024 1169.56 50.8681L1168.94 52.7682C1170.95 53.4279 1172.66 54.3814 1174.1 55.6208L1175.4 54.1064ZM1169.58 50.8736C1167.37 50.1046 1164.94 49.7272 1162.3 49.7272V51.7272C1164.75 51.7272 1166.95 52.0772 1168.92 52.7626L1169.58 50.8736ZM1162.3 49.7272C1157.61 49.7272 1153.52 50.8776 1150.05 53.2169L1151.17 54.8739C1154.26 52.789 1157.95 51.7272 1162.3 51.7272V49.7272ZM1150.05 53.2194C1146.63 55.5562 1144.01 58.9177 1142.19 63.2489L1144.04 64.0238C1145.73 59.9913 1148.12 56.9589 1151.18 54.8715L1150.05 53.2194ZM1142.19 63.2546C1140.4 67.5889 1139.52 72.7867 1139.52 78.8181H1141.52C1141.52 72.9708 1142.38 68.0474 1144.04 64.0181L1142.19 63.2546ZM1139.52 78.8181C1139.52 85.0877 1140.41 90.4108 1142.24 94.7511L1144.08 93.9761C1142.39 89.9528 1141.52 84.9122 1141.52 78.8181H1139.52ZM1142.24 94.7591C1144.09 99.0578 1146.71 102.361 1150.11 104.608L1151.21 102.939C1148.19 100.942 1145.8 97.9724 1144.08 93.9681L1142.24 94.7591ZM1150.12 104.614C1153.54 106.823 1157.57 107.909 1162.16 107.909V105.909C1157.9 105.909 1154.26 104.905 1151.2 102.933L1150.12 104.614ZM1162.16 107.909C1164.73 107.909 1167.09 107.58 1169.23 106.909L1168.63 105.001C1166.71 105.602 1164.56 105.909 1162.16 105.909V107.909ZM1169.23 106.91C1171.39 106.241 1173.31 105.264 1174.96 103.969L1173.72 102.395C1172.28 103.525 1170.59 104.396 1168.64 104.999L1169.23 106.91ZM1174.96 103.967C1176.64 102.645 1178.01 101.045 1179.08 99.1763L1177.34 98.1873C1176.4 99.8336 1175.2 101.235 1173.72 102.397L1174.96 103.967ZM1179.07 99.1811C1180.17 97.2823 1180.91 95.1548 1181.33 92.8094L1179.36 92.4633C1178.98 94.6027 1178.31 96.5055 1177.34 98.1825L1179.07 99.1811ZM1180.34 93.6363L1203.06 93.7727L1203.08 91.7727L1180.35 91.6363L1180.34 93.6363ZM1202.07 92.6775C1201.69 96.6667 1200.53 100.608 1198.58 104.508L1200.37 105.402C1202.42 101.301 1203.66 97.1211 1204.07 92.8678L1202.07 92.6775ZM1198.58 104.513C1196.67 108.401 1194.03 111.959 1190.65 115.187L1192.03 116.632C1195.57 113.254 1198.35 109.509 1200.38 105.397L1198.58 104.513ZM1190.65 115.184C1187.3 118.357 1183.21 120.898 1178.34 122.796L1179.07 124.659C1184.14 122.679 1188.47 120.007 1192.03 116.635L1190.65 115.184ZM1178.34 122.797C1173.54 124.682 1168 125.637 1161.71 125.637V127.637C1168.2 127.637 1173.99 126.652 1179.07 124.658L1178.34 122.797ZM1161.71 125.637C1153.43 125.637 1146.06 123.823 1139.55 120.217L1138.58 121.966C1145.41 125.753 1153.13 127.637 1161.71 127.637V125.637ZM1139.56 120.219C1133.1 116.591 1127.99 111.309 1124.22 104.343L1122.46 105.294C1126.39 112.571 1131.77 118.137 1138.58 121.963L1139.56 120.219ZM1124.22 104.343C1120.47 97.4009 1118.57 88.9068 1118.57 78.8181H1116.57C1116.57 89.1537 1118.52 97.993 1122.46 105.294L1124.22 104.343ZM1118.57 78.8181C1118.57 68.7009 1120.5 60.194 1124.31 53.2539L1122.56 52.2915C1118.55 59.5938 1116.57 68.4505 1116.57 78.8181H1118.57ZM1124.31 53.2539C1128.13 46.2868 1133.29 41.0193 1139.78 37.4199L1138.81 35.6709C1131.97 39.4655 1126.55 45.0162 1122.56 52.2915L1124.31 53.2539ZM1139.78 37.4199C1146.29 33.8122 1153.59 32 1161.71 32V30C1153.28 30 1145.64 31.8847 1138.81 35.6709L1139.78 37.4199ZM1161.71 32C1167.25 32 1172.35 32.7746 1177.03 34.3135L1177.65 32.4137C1172.75 30.8011 1167.44 30 1161.71 30V32ZM1177.03 34.3153C1181.71 35.8246 1185.81 38.0389 1189.34 40.9532L1190.61 39.4104C1186.87 36.3248 1182.55 33.9935 1177.65 32.4119L1177.03 34.3153ZM1189.35 40.9563C1192.87 43.8372 1195.74 47.3817 1197.96 51.6008L1199.73 50.6719C1197.39 46.2243 1194.36 42.4658 1190.61 39.4072L1189.35 40.9563ZM1197.96 51.6008C1200.16 55.8046 1201.54 60.6314 1202.07 66.0973L1204.07 65.9026C1203.51 60.217 1202.07 55.1347 1199.73 50.6719L1197.96 51.6008ZM1215.94 125.364H1214.94V126.364H1215.94V125.364ZM1215.94 32.2727V31.2727H1214.94V32.2727H1215.94ZM1280.85 32.2727H1281.85V31.2727H1280.85V32.2727ZM1280.85 50.5454V51.5454H1281.85V50.5454H1280.85ZM1238.44 50.5454V49.5454H1237.44V50.5454H1238.44ZM1238.44 69.6363H1237.44V70.6363H1238.44V69.6363ZM1277.53 69.6363H1278.53V68.6363H1277.53V69.6363ZM1277.53 87.9545V88.9545H1278.53V87.9545H1277.53ZM1238.44 87.9545V86.9545H1237.44V87.9545H1238.44ZM1238.44 107.091H1237.44V108.091H1238.44V107.091ZM1280.85 107.091H1281.85V106.091H1280.85V107.091ZM1280.85 125.364V126.364H1281.85V125.364H1280.85ZM1216.94 125.364V32.2727H1214.94V125.364H1216.94ZM1215.94 33.2727H1280.85V31.2727H1215.94V33.2727ZM1279.85 32.2727V50.5454H1281.85V32.2727H1279.85ZM1280.85 49.5454H1238.44V51.5454H1280.85V49.5454ZM1237.44 50.5454V69.6363H1239.44V50.5454H1237.44ZM1238.44 70.6363H1277.53V68.6363H1238.44V70.6363ZM1276.53 69.6363V87.9545H1278.53V69.6363H1276.53ZM1277.53 86.9545H1238.44V88.9545H1277.53V86.9545ZM1237.44 87.9545V107.091H1239.44V87.9545H1237.44ZM1238.44 108.091H1280.85V106.091H1238.44V108.091ZM1279.85 107.091V125.364H1281.85V107.091H1279.85ZM1280.85 124.364H1215.94V126.364H1280.85V124.364ZM1345.26 60.1818L1344.27 60.2723L1344.35 61.1818H1345.26V60.1818ZM1341.22 52.4091L1340.6 53.192L1340.61 53.2006L1341.22 52.4091ZM1319.44 53.8636L1320.25 54.4606L1320.25 54.4518L1319.44 53.8636ZM1317.94 58.3636L1318.94 58.407V58.3943V58.3815L1317.94 58.3636ZM1318.76 62.0454L1317.89 62.5416L1317.9 62.5508L1317.9 62.5599L1318.76 62.0454ZM1321.49 64.8636L1320.92 65.6858L1320.93 65.6941L1320.95 65.702L1321.49 64.8636ZM1331.58 68.5454L1331.8 67.5702L1331.79 67.5676L1331.58 68.5454ZM1339.58 70.3636L1339.36 71.3388L1339.37 71.3408L1339.58 70.3636ZM1351.76 74.3636L1351.34 75.2672V75.2686L1351.76 74.3636ZM1360.67 80.3181L1359.98 81.0388V81.0431L1360.67 80.3181ZM1368.08 98.3636L1369.08 98.3688V98.3555L1368.08 98.3636ZM1292.26 94.3636V93.3636H1291.25L1291.26 94.3761L1292.26 94.3636ZM1313.81 94.3636L1314.81 94.3031L1314.75 93.3636H1313.81V94.3636ZM1322.08 106.409L1321.7 107.333L1321.7 107.335L1322.08 106.409ZM1338.54 106.728L1338.18 105.793V105.795L1338.54 106.728ZM1345.26 98.3181L1346.26 98.3343V98.3176V98.3009L1345.26 98.3181ZM1343.63 93.8181L1342.86 94.4584L1342.87 94.4674L1343.63 93.8181ZM1338.72 90.5454L1338.32 91.4639L1338.33 91.4672L1338.34 91.4704L1338.72 90.5454ZM1330.35 87.9545L1330.13 88.9283L1330.13 88.9286L1330.35 87.9545ZM1320.63 85.6818L1320.85 84.708L1320.85 84.7071L1320.63 85.6818ZM1301.58 76.7272L1300.91 77.4722L1300.92 77.4746L1301.58 76.7272ZM1294.67 59.9091L1295.67 59.9133V59.9038L1294.67 59.9091ZM1349.9 34.6818L1349.48 35.5893L1349.49 35.5921L1349.9 34.6818ZM1366.81 60.1818V61.1818H1367.82L1367.81 60.1713L1366.81 60.1818ZM1346.26 60.0912C1345.93 56.5137 1344.47 53.6551 1341.83 51.6175L1340.61 53.2006C1342.76 54.8599 1343.99 57.1832 1344.27 60.2723L1346.26 60.0912ZM1341.84 51.6262C1339.24 49.5553 1335.6 48.5909 1331.08 48.5909V50.5909C1335.35 50.5909 1338.47 51.5053 1340.6 53.192L1341.84 51.6262ZM1331.08 48.5909C1328.09 48.5909 1325.54 48.9788 1323.44 49.7958L1324.17 51.6587C1325.96 50.9605 1328.25 50.5909 1331.08 50.5909V48.5909ZM1323.44 49.7958C1321.37 50.6047 1319.74 51.7515 1318.64 53.2754L1320.25 54.4518C1321.08 53.309 1322.36 52.3649 1324.17 51.6587L1323.44 49.7958ZM1318.64 53.2666C1317.54 54.7451 1316.98 56.4498 1316.95 58.3457L1318.94 58.3815C1318.97 56.8834 1319.41 55.5881 1320.25 54.4606L1318.64 53.2666ZM1316.95 58.3202C1316.88 59.8752 1317.18 61.2947 1317.89 62.5416L1319.63 61.5493C1319.13 60.6749 1318.89 59.6398 1318.94 58.407L1316.95 58.3202ZM1317.9 62.5599C1318.63 63.7606 1319.64 64.7997 1320.92 65.6858L1322.06 64.0414C1320.97 63.2911 1320.17 62.4514 1319.62 61.5309L1317.9 62.5599ZM1320.95 65.702C1322.24 66.5413 1323.76 67.2701 1325.52 67.8962L1326.19 66.0128C1324.55 65.4268 1323.17 64.7617 1322.03 64.0252L1320.95 65.702ZM1325.52 67.8962C1327.26 68.5197 1329.21 69.0612 1331.37 69.5232L1331.79 67.5676C1329.7 67.1205 1327.84 66.6014 1326.19 66.0128L1325.52 67.8962ZM1331.36 69.5205L1339.36 71.3388L1339.8 69.3885L1331.8 67.5702L1331.36 69.5205ZM1339.37 71.3408C1343.92 72.3279 1347.9 73.6393 1351.34 75.2672L1352.19 73.46C1348.6 71.7546 1344.46 70.3993 1339.79 69.3864L1339.37 71.3408ZM1351.34 75.2686C1354.8 76.897 1357.68 78.8236 1359.98 81.0388L1361.37 79.5975C1358.88 77.2066 1355.82 75.1636 1352.19 73.4586L1351.34 75.2686ZM1359.98 81.0431C1362.31 83.2527 1364.06 85.7885 1365.25 88.6553L1367.1 87.8901C1365.8 84.7568 1363.88 81.9896 1361.36 79.5931L1359.98 81.0431ZM1365.25 88.6553C1366.44 91.5203 1367.05 94.7542 1367.08 98.3717L1369.08 98.3555C1369.05 94.5185 1368.39 91.0251 1367.1 87.8901L1365.25 88.6553ZM1367.08 98.3584C1367.05 104.065 1365.61 108.906 1362.81 112.928L1364.45 114.073C1367.52 109.671 1369.05 104.421 1369.08 98.3688L1367.08 98.3584ZM1362.81 112.928C1360 116.958 1355.93 120.074 1350.57 122.256L1351.32 124.109C1356.99 121.805 1361.38 118.467 1364.45 114.073L1362.81 112.928ZM1350.57 122.256C1345.23 124.436 1338.75 125.546 1331.08 125.546V127.546C1338.93 127.546 1345.69 126.413 1351.32 124.109L1350.57 122.256ZM1331.08 125.546C1323.39 125.546 1316.74 124.394 1311.09 122.118L1310.34 123.973C1316.27 126.365 1323.19 127.546 1331.08 127.546V125.546ZM1311.09 122.118C1305.47 119.853 1301.14 116.428 1298.05 111.85L1296.39 112.969C1299.72 117.906 1304.39 121.572 1310.34 123.973L1311.09 122.118ZM1298.05 111.85C1294.97 107.292 1293.35 101.481 1293.26 94.3511L1291.26 94.3761C1291.36 101.792 1293.04 108.011 1296.39 112.969L1298.05 111.85ZM1292.26 95.3636H1313.81V93.3636H1292.26V95.3636ZM1312.81 94.4241C1313 97.5691 1313.85 100.26 1315.4 102.444L1317.03 101.284C1315.74 99.4671 1314.98 97.1581 1314.81 94.3031L1312.81 94.4241ZM1315.4 102.444C1316.95 104.611 1319.06 106.238 1321.7 107.333L1322.46 105.486C1320.13 104.52 1318.34 103.117 1317.03 101.284L1315.4 102.444ZM1321.7 107.335C1324.36 108.424 1327.4 108.955 1330.81 108.955V106.955C1327.61 106.955 1324.83 106.456 1322.46 105.484L1321.7 107.335ZM1330.81 108.955C1333.92 108.955 1336.63 108.535 1338.9 107.661L1338.18 105.795C1336.2 106.556 1333.75 106.955 1330.81 106.955V108.955ZM1338.89 107.662C1341.17 106.795 1342.99 105.566 1344.27 103.939L1342.71 102.698C1341.69 103.981 1340.2 105.024 1338.18 105.793L1338.89 107.662ZM1344.27 103.939C1345.56 102.31 1346.23 100.43 1346.26 98.3343L1344.26 98.302C1344.24 99.9641 1343.72 101.418 1342.71 102.698L1344.27 103.939ZM1346.26 98.3009C1346.23 96.3302 1345.61 94.6017 1344.39 93.1689L1342.87 94.4674C1343.76 95.5194 1344.24 96.7909 1344.26 98.3354L1346.26 98.3009ZM1344.4 93.178C1343.19 91.737 1341.4 90.5659 1339.1 89.6205L1338.34 91.4704C1340.46 92.3432 1341.94 93.354 1342.86 94.4584L1344.4 93.178ZM1339.11 89.6269C1336.86 88.6559 1334.01 87.7761 1330.58 86.9804L1330.13 88.9286C1333.49 89.7086 1336.21 90.5562 1338.32 91.4639L1339.11 89.6269ZM1330.58 86.9807L1320.85 84.708L1320.4 86.6556L1330.13 88.9283L1330.58 86.9807ZM1320.85 84.7071C1312.9 82.8841 1306.72 79.9584 1302.24 75.9798L1300.92 77.4746C1305.71 81.7385 1312.23 84.7825 1320.4 86.6565L1320.85 84.7071ZM1302.25 75.9822C1297.85 72.0482 1295.64 66.7308 1295.67 59.9133L1293.67 59.9048C1293.64 67.2085 1296.04 73.1033 1300.91 77.4722L1302.25 75.9822ZM1295.67 59.9038C1295.64 54.3403 1297.13 49.5051 1300.12 45.3571L1298.5 44.1882C1295.24 48.7069 1293.64 53.9627 1293.67 59.9143L1295.67 59.9038ZM1300.12 45.3571C1303.12 41.1865 1307.29 37.9136 1312.66 35.5518L1311.86 33.7209C1306.2 36.2075 1301.74 39.6922 1298.5 44.1882L1300.12 45.3571ZM1312.66 35.5518C1318.03 33.1921 1324.18 32 1331.13 32V30C1323.95 30 1317.52 31.2321 1311.86 33.7209L1312.66 35.5518ZM1331.13 32C1338.23 32 1344.34 33.2082 1349.48 35.5893L1350.32 33.7743C1344.86 31.2463 1338.45 30 1331.13 30V32ZM1349.49 35.5921C1354.67 37.948 1358.65 41.2422 1361.48 45.4651L1363.14 44.353C1360.09 39.7881 1355.8 36.2641 1350.31 33.7714L1349.49 35.5921ZM1361.48 45.4651C1364.3 49.6822 1365.75 54.5796 1365.81 60.1922L1367.81 60.1713C1367.75 54.2082 1366.2 48.9238 1363.14 44.353L1361.48 45.4651ZM1366.81 59.1818H1345.26V61.1818H1366.81V59.1818Z" fill="white" fill-opacity="0.1"/>
</svg>
