<svg xmlns="http://www.w3.org/2000/svg" width="32" height="32"><path fill="#cad1d8" fill-rule="evenodd" d="M25 22.497v-19c0-1.108-.892-2-2-2h-1v19h1c1.108 0 2 .892 2 2"/><path fill="#e9eded" fill-rule="evenodd" d="M22 1.497v19h1c1.108 0 2 .892 2 2s-.892 2-2 2H2c-1.108 0-2 .892-2 2v-19c0-1.108.892-2 2-2h20"/><path fill="#cad1d8" fill-rule="evenodd" d="M2.268 24.497H2c-1.108 0-2 .892-2 2s.892 2 2 2h1v-4"/><path fill="#576d7e" style="line-height:normal;text-indent:0;text-align:start;text-decoration-line:none;text-decoration-style:solid;text-decoration-color:#000;text-transform:none;block-progression:tb;isolation:auto;mix-blend-mode:normal" d="M3.5 1028.361v14h16v-14h-11v1h10v12h-14v-12h2v-1h-3z" color="#000" font-family="sans-serif" font-weight="400" overflow="visible" transform="translate(0 -1020.362)"/><path fill="#576d7e" fill-rule="evenodd" style="line-height:normal;text-indent:0;text-align:start;text-decoration-line:none;text-decoration-style:solid;text-decoration-color:#000;text-transform:none;block-progression:tb;isolation:auto;mix-blend-mode:normal" d="M10.5 1028.861v3.5h1v-3.5h-1zm0 5.551v7.45h1v-7.45h-1zm-6.5 1.95v1h4.5v-1H4zm8.5-1v1H19v-1h-6.5z" color="#000" font-family="sans-serif" font-weight="400" overflow="visible" transform="translate(0 -1020.362)"/><path fill="#576d7e" style="line-height:normal;text-indent:0;text-align:start;text-decoration-line:none;text-decoration-style:solid;text-decoration-color:#000;text-transform:none;block-progression:tb;isolation:auto;mix-blend-mode:normal" d="M12.5 1037.361v5h5v-5h-5zm1 1h3v3h-3v-3z" color="#000" font-family="sans-serif" font-weight="400" overflow="visible" transform="translate(0 -1020.362)"/><path fill="#576d7e" fill-rule="evenodd" style="line-height:normal;text-indent:0;text-align:start;text-decoration-line:none;text-decoration-style:solid;text-decoration-color:#000;text-transform:none;block-progression:tb;isolation:auto;mix-blend-mode:normal" d="M14.5 1031.361v5h1v-5h-1z" color="#000" font-family="sans-serif" font-weight="400" overflow="visible" transform="translate(0 -1020.362)"/><path fill="#78c8f0" d="M27 6.5h5v18h-5z"/><path fill="#4bbfeb" fill-rule="evenodd" style="line-height:normal;text-indent:0;text-align:start;text-decoration-line:none;text-decoration-style:solid;text-decoration-color:#000;text-transform:none;block-progression:tb;isolation:auto;mix-blend-mode:normal" d="M27 1028.361v1h1.5v-1H27zm0 2v1h2.5v-1H27zm0 2v1h1.5v-1H27zm0 2v1h2.5v-1H27zm0 2v1h1.5v-1H27zm0 2v1h2.5v-1H27zm0 2v1h1.5v-1H27zm0 2v1h2.5v-1H27z" color="#000" font-family="sans-serif" font-weight="400" overflow="visible" transform="translate(0 -1020.362)"/><path fill="#f05542" d="m18.505 1050.362-.012-3H9.994l.012 3z" color="#000" overflow="visible" style="isolation:auto;mix-blend-mode:normal" transform="translate(0 -1020.362)"/><path fill="#f0f4f7" d="m10.006 1050.362-.012-2.992L7 1048.877z" color="#000" overflow="visible" style="isolation:auto;mix-blend-mode:normal" transform="translate(0 -1020.362)"/><path fill="#f8b84e" d="M18.49 1050.362h1.021c.677 0 1.22-.506 1.217-1.129l-.003-.75c-.002-.623-.557-1.123-1.226-1.12h-1.02z" color="#000" overflow="visible" style="isolation:auto;mix-blend-mode:normal" transform="translate(0 -1020.362)"/><path fill="#34485c" fill-rule="evenodd" style="line-height:normal;text-indent:0;text-align:start;text-decoration-line:none;text-decoration-style:solid;text-decoration-color:#000;text-transform:none;block-progression:tb;isolation:auto;mix-blend-mode:normal" d="m9.996 1048.352-.002 1 8.508.02.004-1-8.51-.02z" color="#000" font-family="sans-serif" font-weight="400" overflow="visible" transform="translate(0 -1020.362)"/><path fill="#34485c" fill-rule="evenodd" style="line-height:normal;text-indent:0;text-align:start;text-decoration-line:none;text-decoration-style:solid;text-decoration-color:#000;text-transform:none;block-progression:tb;isolation:auto;mix-blend-mode:normal" d="M18 1047.361v3h1v-3h-1z" color="#000" font-family="sans-serif" font-weight="400" overflow="visible" transform="translate(0 -1020.362)"/><path fill="#0c5286" style="isolation:auto;mix-blend-mode:normal" d="m7.747 1048.5-.748.377.751.371z" color="#000" overflow="visible" transform="translate(0 -1020.362)"/></svg>