<svg xmlns="http://www.w3.org/2000/svg" width="32" height="32"><path fill="#2b4255" d="M9 28h2v3H9zm16 0h2v3h-2z"/><path style="line-height:normal;text-indent:0;text-align:start;text-decoration-line:none;text-decoration-style:solid;text-decoration-color:#000;text-transform:none;block-progression:tb;isolation:auto;mix-blend-mode:normal" fill="#2b4255" d="M636.463 1307.268a.5.5 0 1 0 0 1H652v23h-22v-13.696a.5.5 0 1 0-1 0v14.196a.5.5 0 0 0 .5.5h23a.5.5 0 0 0 .5-.5v-24a.5.5 0 0 0-.5-.5h-16.037z" color="#000" font-family="sans-serif" font-weight="400" overflow="visible" transform="translate(-623 -1303.267)"/><path style="line-height:normal;text-indent:0;text-align:start;text-decoration-line:none;text-decoration-style:solid;text-decoration-color:#000;text-transform:none;block-progression:tb;isolation:auto;mix-blend-mode:normal" fill="#2b4255" fill-rule="evenodd" d="M635.523 1315.268v1H652v-1h-16.477zm-5.523 8v1h22v-1h-22z" color="#000" font-family="sans-serif" font-weight="400" overflow="visible" transform="translate(-623 -1303.267)"/><path fill="#f8b84e" d="M27 8.5a1.5 1.5 0 0 1-1.5 1.5A1.5 1.5 0 0 1 24 8.5 1.5 1.5 0 0 1 25.5 7 1.5 1.5 0 0 1 27 8.5zm-5 0a1.5 1.5 0 0 1-1.5 1.5A1.5 1.5 0 0 1 19 8.5 1.5 1.5 0 0 1 20.5 7 1.5 1.5 0 0 1 22 8.5zm-5 0a1.5 1.5 0 0 1-1.5 1.5A1.5 1.5 0 0 1 14 8.5 1.5 1.5 0 0 1 15.5 7 1.5 1.5 0 0 1 17 8.5zm10 8a1.5 1.5 0 0 1-1.5 1.5 1.5 1.5 0 0 1-1.5-1.5 1.5 1.5 0 0 1 1.5-1.5 1.5 1.5 0 0 1 1.5 1.5zm-5 0a1.5 1.5 0 0 1-1.5 1.5 1.5 1.5 0 0 1-1.5-1.5 1.5 1.5 0 0 1 1.5-1.5 1.5 1.5 0 0 1 1.5 1.5zm-5 0a1.5 1.5 0 0 1-1.5 1.5 1.5 1.5 0 0 1-1.5-1.5 1.5 1.5 0 0 1 1.5-1.5 1.5 1.5 0 0 1 1.5 1.5zm10 8a1.5 1.5 0 0 1-1.5 1.5 1.5 1.5 0 0 1-1.5-1.5 1.5 1.5 0 0 1 1.5-1.5 1.5 1.5 0 0 1 1.5 1.5zm-5 0a1.5 1.5 0 0 1-1.5 1.5 1.5 1.5 0 0 1-1.5-1.5 1.5 1.5 0 0 1 1.5-1.5 1.5 1.5 0 0 1 1.5 1.5zm-5 0a1.5 1.5 0 0 1-1.5 1.5 1.5 1.5 0 0 1-1.5-1.5 1.5 1.5 0 0 1 1.5-1.5 1.5 1.5 0 0 1 1.5 1.5z"/><path style="line-height:normal;text-indent:0;text-align:start;text-decoration-line:none;text-decoration-style:solid;text-decoration-color:#000;text-transform:none;block-progression:tb;isolation:auto;mix-blend-mode:normal" fill="#2b4255" d="M631 1304.267c-3.86 0-7 3.14-7 7s3.14 7 7 7 7-3.14 7-7-3.14-7-7-7zm0 1c3.32 0 6 2.68 6 6s-2.68 6-6 6-6-2.68-6-6 2.68-6 6-6z" color="#000" font-family="sans-serif" font-weight="400" overflow="visible" transform="translate(-623 -1303.267)"/><path style="line-height:normal;text-indent:0;text-align:start;text-decoration-line:none;text-decoration-style:solid;text-decoration-color:#000;text-transform:none;block-progression:tb;isolation:auto;mix-blend-mode:normal" fill="#2b4255" d="M631 1309.174c-1.83 0-3.314 1.519-3.314 3.367s1.484 3.367 3.314 3.367 3.314-1.519 3.314-3.367-1.484-3.367-3.314-3.367zm0 1c1.28 0 2.314 1.05 2.314 2.367 0 1.318-1.035 2.367-2.314 2.367-1.28 0-2.314-1.05-2.314-2.367 0-1.318 1.035-2.367 2.314-2.367z" color="#000" font-family="sans-serif" font-weight="400" overflow="visible" transform="translate(-623 -1303.267)"/><path style="line-height:normal;text-indent:0;text-align:start;text-decoration-line:none;text-decoration-style:solid;text-decoration-color:#000;text-transform:none;block-progression:tb;isolation:auto;mix-blend-mode:normal" fill="#2b4255" d="M630.982 1306.627c-1.13 0-2.046.938-2.046 2.074v1.46a.5.5 0 0 0 .783.411c.38-.26.825-.398 1.281-.398.456 0 .9.139 1.281.398a.5.5 0 0 0 .783-.414v-1.457c0-1.136-.916-2.074-2.046-2.074h-.036zm0 1h.036c.583 0 1.046.465 1.046 1.074v.803c-.353-.127-.685-.33-1.064-.33-.38 0-.711.202-1.064.33v-.803c0-.609.463-1.074 1.046-1.074zm.018 3.645c-.543 0-1.004.448-1.004.996 0 .273.114.527.295.705a.5.5 0 0 0 .002 0 1.008 1.008 0 0 0 1.711-.707c0-.548-.46-.996-1.004-.996z" color="#000" font-family="sans-serif" font-weight="400" overflow="visible" transform="translate(-623 -1303.267)"/><path style="line-height:normal;text-indent:0;text-align:start;text-decoration-line:none;text-decoration-style:solid;text-decoration-color:#000;text-transform:none;block-progression:tb;isolation:auto;mix-blend-mode:normal" fill="#2b4255" fill-rule="evenodd" d="M630.992 1311.945a.5.5 0 0 0-.492.508v1.303a.5.5 0 1 0 1 0v-1.303a.5.5 0 0 0-.508-.508z" color="#000" font-family="sans-serif" font-weight="400" overflow="visible" transform="translate(-623 -1303.267)"/></svg>