<svg width="477" height="476" viewBox="0 0 477 476" fill="none" xmlns="http://www.w3.org/2000/svg">
<circle cx="238.113" cy="238" r="238" fill="#28B391"/>
<path d="M409.16 354H65.8397C63.496 353.997 61.2492 353.065 59.592 351.408C57.9348 349.751 57.0026 347.504 57 345.161V133.476C57.0019 131.759 57.6848 130.113 58.8989 128.899C60.1129 127.685 61.759 127.002 63.4759 127H411.412C413.159 127.002 414.833 127.697 416.068 128.932C417.303 130.167 417.998 131.841 418 133.588V345.161C417.997 347.504 417.065 349.751 415.408 351.408C413.751 353.065 411.504 353.997 409.16 354V354Z" fill="#F2F2F2"/>
<path d="M397.518 342H78.4815C73.8048 342 70 338.431 70 334.044V149.901C70 146.647 72.8194 144 76.285 144H399.611C403.134 144 406 146.691 406 149.998V334.044C406 338.431 402.195 342 397.518 342Z" fill="white"/>
<path d="M418 135H57V130.286C57.0034 127.824 57.9394 125.463 59.6026 123.722C61.2658 121.981 63.5204 121.002 65.8718 121H409.128C411.48 121.002 413.734 121.981 415.397 123.722C417.061 125.463 417.997 127.824 418 130.286V135Z" fill="#3F3D56"/>
<path d="M73 130C74.1046 130 75 129.105 75 128C75 126.895 74.1046 126 73 126C71.8954 126 71 126.895 71 128C71 129.105 71.8954 130 73 130Z" fill="white"/>
<path d="M82.5 130C83.8807 130 85 129.105 85 128C85 126.895 83.8807 126 82.5 126C81.1193 126 80 126.895 80 128C80 129.105 81.1193 130 82.5 130Z" fill="white"/>
<path d="M90.5 130C91.8807 130 93 129.105 93 128C93 126.895 91.8807 126 90.5 126C89.1193 126 88 126.895 88 128C88 129.105 89.1193 130 90.5 130Z" fill="white"/>
<path d="M231.412 184H167.588C166.636 184 165.724 183.684 165.051 183.121C164.378 182.559 164 181.796 164 181C164 180.204 164.378 179.441 165.051 178.879C165.724 178.316 166.636 178 167.588 178H231.412C232.364 178 233.276 178.316 233.949 178.879C234.622 179.441 235 180.204 235 181C235 181.796 234.622 182.559 233.949 183.121C233.276 183.684 232.364 184 231.412 184V184Z" fill="#CCCCCC"/>
<path d="M308.513 184H246.487C245.562 184 244.675 183.684 244.021 183.121C243.367 182.559 243 181.796 243 181C243 180.204 243.367 179.441 244.021 178.879C244.675 178.316 245.562 178 246.487 178H308.513C309.438 178 310.325 178.316 310.979 178.879C311.633 179.441 312 180.204 312 181C312 181.796 311.633 182.559 310.979 183.121C310.325 183.684 309.438 184 308.513 184V184Z" fill="#CCCCCC"/>
<path d="M308.51 198H200.49C199.565 198 198.677 197.631 198.022 196.975C197.368 196.318 197 195.428 197 194.5C197 193.572 197.368 192.681 198.022 192.025C198.677 191.369 199.565 191 200.49 191H308.51C309.435 191 310.323 191.369 310.978 192.025C311.632 192.681 312 193.572 312 194.5C312 195.428 311.632 196.318 310.978 196.975C310.323 197.631 309.435 198 308.51 198Z" fill="#CCCCCC"/>
<path d="M231.408 172H167.583C166.633 171.999 165.721 171.577 165.049 170.827C164.377 170.077 164 169.06 164 168C164 166.94 164.377 165.923 165.049 165.173C165.721 164.423 166.633 164.001 167.583 164H231.408C231.879 163.999 232.346 164.102 232.782 164.303C233.218 164.504 233.614 164.798 233.948 165.17C234.281 165.541 234.546 165.982 234.726 166.468C234.907 166.954 235 167.474 235 168C235 168.526 234.907 169.046 234.726 169.532C234.546 170.017 234.281 170.459 233.948 170.83C233.614 171.202 233.218 171.496 232.782 171.697C232.346 171.898 231.879 172.001 231.408 172V172Z" fill="#CCCCCC"/>
<path d="M265.455 172H247.545C246.605 172 245.703 171.631 245.038 170.975C244.373 170.318 244 169.428 244 168.5C244 167.572 244.373 166.682 245.038 166.025C245.703 165.369 246.605 165 247.545 165H265.455C266.395 165 267.297 165.369 267.962 166.025C268.627 166.682 269 167.572 269 168.5C269 169.428 268.627 170.318 267.962 170.975C267.297 171.631 266.395 172 265.455 172Z" fill="#CCCCCC"/>
<path d="M186.309 198H167.682C166.705 197.999 165.769 197.63 165.078 196.973C164.388 196.317 164 195.428 164 194.5C164 193.572 164.388 192.683 165.078 192.027C165.769 191.37 166.705 191.001 167.682 191H186.309C186.793 190.999 187.273 191.09 187.721 191.265C188.169 191.441 188.576 191.699 188.919 192.024C189.261 192.349 189.533 192.735 189.719 193.16C189.904 193.585 190 194.04 190 194.5C190 194.96 189.904 195.415 189.719 195.84C189.533 196.265 189.261 196.651 188.919 196.976C188.576 197.301 188.169 197.559 187.721 197.735C187.273 197.91 186.793 198.001 186.309 198Z" fill="#CCCCCC"/>
<path d="M231.412 310H167.588C166.636 310 165.724 309.631 165.051 308.975C164.378 308.319 164 307.428 164 306.5C164 305.572 164.378 304.682 165.051 304.025C165.724 303.369 166.636 303 167.588 303H231.412C231.883 303 232.35 303.091 232.785 303.266C233.221 303.442 233.616 303.7 233.949 304.025C234.282 304.35 234.547 304.736 234.727 305.161C234.907 305.585 235 306.04 235 306.5C235 306.96 234.907 307.415 234.727 307.839C234.547 308.264 234.282 308.65 233.949 308.975C233.616 309.3 233.221 309.558 232.785 309.734C232.35 309.909 231.883 310 231.412 310V310Z" fill="#CCCCCC"/>
<path d="M308.513 310H246.487C245.562 310 244.675 309.631 244.021 308.975C243.367 308.319 243 307.428 243 306.5C243 305.572 243.367 304.682 244.021 304.025C244.675 303.369 245.562 303 246.487 303H308.513C308.971 303 309.425 303.091 309.848 303.266C310.271 303.442 310.655 303.7 310.979 304.025C311.303 304.35 311.559 304.736 311.735 305.161C311.91 305.585 312 306.04 312 306.5C312 306.96 311.91 307.415 311.735 307.839C311.559 308.264 311.303 308.65 310.979 308.975C310.655 309.3 310.271 309.558 309.848 309.734C309.425 309.909 308.971 310 308.513 310V310Z" fill="#CCCCCC"/>
<path d="M308.505 323H200.49C199.565 323 198.677 322.631 198.022 321.975C197.368 321.319 197 320.428 197 319.5C197 318.572 197.368 317.681 198.022 317.025C198.677 316.369 199.565 316 200.49 316H308.505C308.964 315.999 309.418 316.09 309.842 316.265C310.266 316.441 310.652 316.699 310.976 317.024C311.301 317.349 311.558 317.735 311.734 318.16C311.91 318.585 312 319.04 312 319.5C312 319.96 311.91 320.415 311.734 320.84C311.558 321.265 311.301 321.651 310.976 321.976C310.652 322.301 310.266 322.559 309.842 322.735C309.418 322.91 308.964 323.001 308.505 323Z" fill="#CCCCCC"/>
<path d="M231.412 296H167.588C166.636 296 165.724 295.631 165.051 294.975C164.378 294.318 164 293.428 164 292.5C164 291.572 164.378 290.682 165.051 290.025C165.724 289.369 166.636 289 167.588 289H231.412C232.364 289 233.276 289.369 233.949 290.025C234.622 290.682 235 291.572 235 292.5C235 293.428 234.622 294.318 233.949 294.975C233.276 295.631 232.364 296 231.412 296Z" fill="#CCCCCC"/>
<path d="M265.455 296H247.545C246.605 296 245.703 295.631 245.038 294.975C244.373 294.318 244 293.428 244 292.5C244 291.572 244.373 290.682 245.038 290.025C245.703 289.369 246.605 289 247.545 289H265.455C266.395 289 267.297 289.369 267.962 290.025C268.627 290.682 269 291.572 269 292.5C269 293.428 268.627 294.318 267.962 294.975C267.297 295.631 266.395 296 265.455 296V296Z" fill="#CCCCCC"/>
<path d="M186.31 323H167.686C166.708 323 165.771 322.631 165.08 321.975C164.388 321.319 164 320.428 164 319.5C164 318.572 164.388 317.681 165.08 317.025C165.771 316.369 166.708 316 167.686 316H186.31C186.794 315.999 187.274 316.09 187.721 316.265C188.169 316.441 188.576 316.699 188.919 317.024C189.262 317.349 189.533 317.735 189.719 318.16C189.905 318.585 190 319.04 190 319.5C190 319.96 189.905 320.415 189.719 320.84C189.533 321.265 189.262 321.651 188.919 321.976C188.576 322.301 188.169 322.559 187.721 322.735C187.274 322.91 186.794 323.001 186.31 323Z" fill="#CCCCCC"/>
<path d="M214.774 272C213.434 272.003 212.148 271.484 211.195 270.555L187.47 247.443C187.005 246.99 186.635 246.449 186.382 245.853C186.13 245.258 186 244.618 186 243.973C186 243.327 186.13 242.687 186.382 242.092C186.635 241.496 187.005 240.955 187.47 240.502L211.099 217.483C212.083 216.529 213.41 215.996 214.79 216C216.17 216.004 217.493 216.545 218.471 217.506C219.45 218.474 220 219.786 220 221.154C220 222.521 219.45 223.833 218.471 224.801L200.913 242.123C200.366 242.664 200.059 243.397 200.059 244.161C200.059 244.925 200.366 245.658 200.913 246.199L218.376 263.427C219.089 264.129 219.575 265.024 219.772 265.999C219.968 266.973 219.868 267.984 219.482 268.902C219.096 269.82 218.443 270.605 217.605 271.156C216.766 271.708 215.781 272.001 214.774 272V272Z" fill="#28B391"/>
<path d="M252.228 272C251.221 272.001 250.236 271.708 249.398 271.156C248.56 270.605 247.906 269.82 247.521 268.902C247.135 267.984 247.034 266.973 247.231 265.999C247.428 265.024 247.914 264.129 248.627 263.427L266.088 246.199C266.635 245.658 266.942 244.925 266.942 244.161C266.942 243.397 266.635 242.664 266.088 242.123L248.531 224.801C248.046 224.322 247.661 223.754 247.398 223.128C247.135 222.502 247 221.831 247 221.154C247 220.476 247.135 219.805 247.398 219.179C247.661 218.554 248.046 217.985 248.532 217.506V217.506C249.51 216.545 250.832 216.004 252.212 216C253.592 215.996 254.919 216.529 255.903 217.483L279.53 240.502C279.995 240.955 280.365 241.496 280.618 242.092C280.87 242.687 281 243.327 281 243.973C281 244.618 280.87 245.258 280.618 245.853C280.365 246.449 279.995 246.99 279.53 247.443L255.807 270.555C254.854 271.484 253.568 272.003 252.228 272Z" fill="#28B391"/>
<path d="M154.311 106.235C159.455 106.235 163.625 101.948 163.625 96.6598C163.625 91.3717 159.455 87.085 154.311 87.085C149.168 87.085 144.998 91.3717 144.998 96.6598C144.998 101.948 149.168 106.235 154.311 106.235Z" fill="white"/>
<path d="M182.252 106.235C187.396 106.235 191.565 101.948 191.565 96.6598C191.565 91.3717 187.396 87.085 182.252 87.085C177.108 87.085 172.938 91.3717 172.938 96.6598C172.938 101.948 177.108 106.235 182.252 106.235Z" fill="white"/>
<path d="M210.192 106.235C215.336 106.235 219.506 101.948 219.506 96.6598C219.506 91.3717 215.336 87.085 210.192 87.085C205.049 87.085 200.879 91.3717 200.879 96.6598C200.879 101.948 205.049 106.235 210.192 106.235Z" fill="white"/>
<path d="M238.132 106.235C243.275 106.235 247.445 101.948 247.445 96.6598C247.445 91.3717 243.275 87.085 238.132 87.085C232.988 87.085 228.818 91.3717 228.818 96.6598C228.818 101.948 232.988 106.235 238.132 106.235Z" fill="white"/>
<path d="M266.072 106.235C271.216 106.235 275.386 101.948 275.386 96.6598C275.386 91.3717 271.216 87.085 266.072 87.085C260.929 87.085 256.759 91.3717 256.759 96.6598C256.759 101.948 260.929 106.235 266.072 106.235Z" fill="white"/>
<path d="M294.013 106.235C299.156 106.235 303.326 101.948 303.326 96.6598C303.326 91.3717 299.156 87.085 294.013 87.085C288.869 87.085 284.699 91.3717 284.699 96.6598C284.699 101.948 288.869 106.235 294.013 106.235Z" fill="white"/>
<path d="M321.953 106.235C327.097 106.235 331.267 101.948 331.267 96.6598C331.267 91.3717 327.097 87.085 321.953 87.085C316.809 87.085 312.64 91.3717 312.64 96.6598C312.64 101.948 316.809 106.235 321.953 106.235Z" fill="white"/>
<path d="M343.475 108.32H132.79C131.785 108.318 130.822 107.908 130.111 107.177C129.401 106.447 129.001 105.456 129 104.423V88.8964C129.001 87.8634 129.401 86.873 130.111 86.1426C130.822 85.4121 131.785 85.0012 132.79 85H238.133H343.475C344.48 85.0012 345.443 85.4121 346.154 86.1426C346.864 86.873 347.264 87.8634 347.265 88.8964V104.423C347.264 105.456 346.864 106.447 346.154 107.177C345.443 107.908 344.48 108.318 343.475 108.32ZM132.79 86.5586C132.187 86.5593 131.609 86.8058 131.183 87.2441C130.756 87.6824 130.517 88.2766 130.516 88.8965V104.423C130.517 105.043 130.756 105.637 131.183 106.076C131.609 106.514 132.187 106.76 132.79 106.761H343.475C344.078 106.76 344.656 106.514 345.082 106.076C345.509 105.637 345.748 105.043 345.749 104.423V88.8964C345.748 88.2766 345.509 87.6824 345.082 87.2441C344.656 86.8058 344.078 86.5593 343.475 86.5586L132.79 86.5586Z" fill="white"/>
<path d="M343.475 108.32H132.79C131.785 108.318 130.822 107.908 130.111 107.177C129.401 106.447 129.001 105.456 129 104.423V88.8964C129.001 87.8634 129.401 86.873 130.111 86.1426C130.822 85.4121 131.785 85.0012 132.79 85H238.133H343.475C344.48 85.0012 345.443 85.4121 346.154 86.1426C346.864 86.873 347.264 87.8634 347.265 88.8964V104.423C347.264 105.456 346.864 106.447 346.154 107.177C345.443 107.908 344.48 108.318 343.475 108.32ZM132.79 86.5586C132.187 86.5593 131.609 86.8058 131.183 87.2441C130.756 87.6824 130.517 88.2766 130.516 88.8965V104.423C130.517 105.043 130.756 105.637 131.183 106.076C131.609 106.514 132.187 106.76 132.79 106.761H343.475C344.078 106.76 344.656 106.514 345.082 106.076C345.509 105.637 345.748 105.043 345.749 104.423V88.8964C345.748 88.2766 345.509 87.6824 345.082 87.2441C344.656 86.8058 344.078 86.5593 343.475 86.5586L132.79 86.5586Z" fill="white"/>
</svg>
