<svg width="487" height="476" viewBox="0 0 487 476" fill="none" xmlns="http://www.w3.org/2000/svg">
<circle cx="238" cy="238" r="238" fill="#5DC1D8" fill-opacity="0.99"/>
<path d="M164.87 102.235C170.014 102.235 174.184 97.9478 174.184 92.6598C174.184 87.3717 170.014 83.085 164.87 83.085C159.726 83.085 155.557 87.3717 155.557 92.6598C155.557 97.9478 159.726 102.235 164.87 102.235Z" fill="white"/>
<path d="M192.811 102.235C197.954 102.235 202.124 97.9478 202.124 92.6598C202.124 87.3717 197.954 83.085 192.811 83.085C187.667 83.085 183.497 87.3717 183.497 92.6598C183.497 97.9478 187.667 102.235 192.811 102.235Z" fill="white"/>
<path d="M220.751 102.235C225.895 102.235 230.064 97.9478 230.064 92.6598C230.064 87.3717 225.895 83.085 220.751 83.085C215.607 83.085 211.438 87.3717 211.438 92.6598C211.438 97.9478 215.607 102.235 220.751 102.235Z" fill="white"/>
<path d="M248.69 102.235C253.834 102.235 258.004 97.9478 258.004 92.6598C258.004 87.3717 253.834 83.085 248.69 83.085C243.547 83.085 239.377 87.3717 239.377 92.6598C239.377 97.9478 243.547 102.235 248.69 102.235Z" fill="white"/>
<path d="M276.631 102.235C281.774 102.235 285.944 97.9478 285.944 92.6598C285.944 87.3717 281.774 83.085 276.631 83.085C271.487 83.085 267.317 87.3717 267.317 92.6598C267.317 97.9478 271.487 102.235 276.631 102.235Z" fill="white"/>
<path d="M304.571 102.235C309.715 102.235 313.885 97.9478 313.885 92.6598C313.885 87.3717 309.715 83.085 304.571 83.085C299.428 83.085 295.258 87.3717 295.258 92.6598C295.258 97.9478 299.428 102.235 304.571 102.235Z" fill="white"/>
<path d="M332.512 102.235C337.655 102.235 341.825 97.9478 341.825 92.6598C341.825 87.3717 337.655 83.085 332.512 83.085C327.368 83.085 323.198 87.3717 323.198 92.6598C323.198 97.9478 327.368 102.235 332.512 102.235Z" fill="white"/>
<path d="M354.034 104.32H143.349C142.344 104.318 141.381 103.908 140.67 103.177C139.959 102.447 139.56 101.456 139.559 100.423V84.8964C139.56 83.8634 139.959 82.873 140.67 82.1426C141.381 81.4121 142.344 81.0012 143.349 81H248.691H354.034C355.038 81.0012 356.002 81.4121 356.712 82.1426C357.423 82.873 357.823 83.8634 357.824 84.8964V100.423C357.823 101.456 357.423 102.447 356.712 103.177C356.002 103.908 355.038 104.318 354.034 104.32ZM143.349 82.5586C142.746 82.5593 142.168 82.8058 141.741 83.2441C141.315 83.6824 141.075 84.2766 141.075 84.8965V100.423C141.075 101.043 141.315 101.637 141.741 102.076C142.168 102.514 142.746 102.76 143.349 102.761H354.034C354.637 102.76 355.215 102.514 355.641 102.076C356.067 101.637 356.307 101.043 356.308 100.423V84.8964C356.307 84.2766 356.067 83.6824 355.641 83.2441C355.215 82.8058 354.637 82.5593 354.034 82.5586L143.349 82.5586Z" fill="white"/>
<path d="M354.034 104.32H143.349C142.344 104.318 141.381 103.908 140.67 103.177C139.959 102.447 139.56 101.456 139.559 100.423V84.8964C139.56 83.8634 139.959 82.873 140.67 82.1426C141.381 81.4121 142.344 81.0012 143.349 81H248.691H354.034C355.038 81.0012 356.002 81.4121 356.712 82.1426C357.423 82.873 357.823 83.8634 357.824 84.8964V100.423C357.823 101.456 357.423 102.447 356.712 103.177C356.002 103.908 355.038 104.318 354.034 104.32ZM143.349 82.5586C142.746 82.5593 142.168 82.8058 141.741 83.2441C141.315 83.6824 141.075 84.2766 141.075 84.8965V100.423C141.075 101.043 141.315 101.637 141.741 102.076C142.168 102.514 142.746 102.76 143.349 102.761H354.034C354.637 102.76 355.215 102.514 355.641 102.076C356.067 101.637 356.307 101.043 356.308 100.423V84.8964C356.307 84.2766 356.067 83.6824 355.641 83.2441C355.215 82.8058 354.637 82.5593 354.034 82.5586L143.349 82.5586Z" fill="white"/>
<path d="M486.823 375.421H9V377.528H486.823V375.421Z" fill="#E6E6E6"/>
<path d="M286.433 372.127H208.731L211.365 336.926H283.799L286.433 372.127Z" fill="#E6E6E6"/>
<path d="M291.701 368.065H204.781V376.189H291.701V368.065Z" fill="#E6E6E6"/>
<path d="M396.4 110.143H99.4243C97.3286 110.143 95.3187 110.998 93.8368 112.522C92.355 114.045 91.5225 116.112 91.5225 118.266V118.266V304.431H404.302V118.266C404.302 117.199 404.098 116.143 403.701 115.157C403.304 114.172 402.721 113.276 401.988 112.522C401.254 111.768 400.383 111.169 399.424 110.761C398.465 110.353 397.438 110.143 396.4 110.143H396.4Z" fill="#3F3D56"/>
<path d="M91.5225 304.431V334.894C91.5225 335.961 91.7269 337.017 92.124 338.003C92.5211 338.988 93.1031 339.884 93.8368 340.638C94.5706 341.393 95.4417 341.991 96.4004 342.399C97.3591 342.807 98.3866 343.017 99.4243 343.017H396.4C398.496 343.017 400.506 342.162 401.988 340.638C403.47 339.115 404.302 337.048 404.302 334.894V304.431H91.5225Z" fill="#E6E6E6"/>
<path d="M389.156 127.066H107.325V289.537H389.156V127.066Z" fill="#E6E6E6"/>
<path d="M248.242 331.509C252.606 331.509 256.143 327.872 256.143 323.385C256.143 318.899 252.606 315.262 248.242 315.262C243.878 315.262 240.34 318.899 240.34 323.385C240.34 327.872 243.878 331.509 248.242 331.509Z" fill="#3F3D56"/>
<path d="M116.113 133.929C116.941 133.929 117.612 133.239 117.612 132.387C117.612 131.536 116.941 130.846 116.113 130.846C115.285 130.846 114.613 131.536 114.613 132.387C114.613 133.239 115.285 133.929 116.113 133.929Z" fill="white"/>
<path d="M121.804 133.929C122.632 133.929 123.304 133.239 123.304 132.387C123.304 131.536 122.632 130.846 121.804 130.846C120.976 130.846 120.305 131.536 120.305 132.387C120.305 133.239 120.976 133.929 121.804 133.929Z" fill="white"/>
<path d="M127.497 133.929C128.325 133.929 128.996 133.239 128.996 132.387C128.996 131.536 128.325 130.846 127.497 130.846C126.668 130.846 125.997 131.536 125.997 132.387C125.997 133.239 126.668 133.929 127.497 133.929Z" fill="white"/>
<path d="M381.033 137.626H114.613V274.075H381.033V137.626Z" fill="white"/>
<path d="M132.323 158.381C132.073 158.381 131.834 158.483 131.657 158.665C131.48 158.846 131.381 159.092 131.381 159.349V208.293C131.381 208.55 131.48 208.796 131.657 208.977C131.834 209.159 132.073 209.261 132.323 209.261H187.302C187.552 209.261 187.791 209.159 187.968 208.977C188.144 208.796 188.244 208.55 188.244 208.293V159.349C188.244 159.092 188.144 158.846 187.968 158.665C187.791 158.483 187.552 158.381 187.302 158.381H132.323Z" fill="#E6E6E6"/>
<path d="M220.599 158.537C220.35 158.537 220.11 158.639 219.933 158.821C219.757 159.002 219.657 159.249 219.657 159.505V208.292C219.657 208.548 219.757 208.795 219.933 208.976C220.11 209.158 220.35 209.26 220.599 209.26H275.404C275.653 209.26 275.893 209.158 276.069 208.976C276.246 208.794 276.345 208.548 276.345 208.292V159.505C276.345 159.249 276.246 159.003 276.069 158.821C275.893 158.64 275.653 158.537 275.404 158.537H220.599Z" fill="#E6E6E6"/>
<path d="M307.95 158.026C307.701 158.027 307.461 158.129 307.285 158.31C307.108 158.492 307.009 158.738 307.009 158.995V208.292C307.009 208.549 307.108 208.795 307.285 208.977C307.461 209.158 307.701 209.26 307.95 209.261H363.324C363.574 209.26 363.813 209.158 363.99 208.977C364.166 208.795 364.266 208.549 364.266 208.292V158.995C364.266 158.738 364.166 158.492 363.99 158.31C363.813 158.129 363.574 158.027 363.324 158.026H307.95Z" fill="#E6E6E6"/>
<path d="M133.328 233.487C132.813 233.488 132.318 233.7 131.954 234.075C131.589 234.45 131.385 234.959 131.385 235.489C131.385 236.019 131.589 236.528 131.954 236.903C132.318 237.279 132.813 237.49 133.328 237.491H185.02C185.536 237.49 186.03 237.279 186.394 236.903C186.759 236.528 186.963 236.019 186.963 235.489C186.963 234.959 186.759 234.45 186.394 234.075C186.03 233.7 185.536 233.488 185.02 233.487H133.328Z" fill="#E6E6E6"/>
<path d="M133.329 243.01C132.813 243.011 132.318 243.222 131.954 243.597C131.589 243.973 131.385 244.481 131.385 245.012C131.385 245.542 131.589 246.051 131.954 246.426C132.318 246.801 132.813 247.013 133.329 247.014H156.602C157.118 247.013 157.612 246.801 157.977 246.426C158.341 246.051 158.546 245.542 158.546 245.012C158.546 244.481 158.341 243.973 157.977 243.597C157.612 243.222 157.118 243.011 156.602 243.01H133.329Z" fill="#23A8F2"/>
<path d="M222.553 233.487C222.037 233.488 221.543 233.7 221.178 234.075C220.814 234.45 220.609 234.959 220.609 235.489C220.609 236.019 220.814 236.528 221.178 236.903C221.543 237.279 222.037 237.49 222.553 237.491H274.244C274.76 237.49 275.255 237.279 275.619 236.903C275.983 236.528 276.188 236.019 276.188 235.489C276.188 234.959 275.983 234.45 275.619 234.075C275.255 233.7 274.76 233.488 274.244 233.487H222.553Z" fill="#E6E6E6"/>
<path d="M222.553 243.01C222.037 243.011 221.543 243.222 221.178 243.597C220.814 243.973 220.609 244.481 220.609 245.012C220.609 245.542 220.814 246.051 221.178 246.426C221.543 246.801 222.037 247.013 222.553 247.014H245.827C246.343 247.013 246.837 246.801 247.202 246.426C247.566 246.051 247.771 245.542 247.771 245.012C247.771 244.481 247.566 243.973 247.202 243.597C246.837 243.222 246.343 243.011 245.827 243.01H222.553Z" fill="#23A8F2"/>
<path d="M309.548 233.487C309.032 233.488 308.538 233.7 308.174 234.075C307.809 234.45 307.604 234.959 307.604 235.489C307.604 236.019 307.809 236.528 308.174 236.903C308.538 237.279 309.032 237.49 309.548 237.491H361.24C361.755 237.49 362.25 237.279 362.614 236.903C362.978 236.528 363.183 236.019 363.183 235.489C363.183 234.959 362.978 234.45 362.614 234.075C362.25 233.7 361.755 233.488 361.24 233.487H309.548Z" fill="#E6E6E6"/>
<path d="M133.328 223.653C132.813 223.654 132.318 223.866 131.954 224.241C131.589 224.616 131.385 225.125 131.385 225.655C131.385 226.185 131.589 226.694 131.954 227.069C132.318 227.445 132.813 227.656 133.328 227.657H185.02C185.536 227.656 186.03 227.445 186.394 227.069C186.759 226.694 186.963 226.185 186.963 225.655C186.963 225.125 186.759 224.616 186.394 224.241C186.03 223.866 185.536 223.654 185.02 223.653H133.328Z" fill="#E6E6E6"/>
<path d="M222.553 223.653C222.037 223.654 221.543 223.866 221.178 224.241C220.814 224.616 220.609 225.125 220.609 225.655C220.609 226.185 220.814 226.694 221.178 227.069C221.543 227.445 222.037 227.656 222.553 227.657H274.244C274.76 227.656 275.255 227.445 275.619 227.069C275.983 226.694 276.188 226.185 276.188 225.655C276.188 225.125 275.983 224.616 275.619 224.241C275.255 223.866 274.76 223.654 274.244 223.653H222.553Z" fill="#E6E6E6"/>
<path d="M309.548 223.653C309.032 223.654 308.538 223.866 308.174 224.241C307.809 224.616 307.604 225.125 307.604 225.655C307.604 226.185 307.809 226.694 308.174 227.069C308.538 227.445 309.032 227.656 309.548 227.657H361.24C361.755 227.656 362.25 227.445 362.614 227.069C362.978 226.694 363.183 226.185 363.183 225.655C363.183 225.125 362.978 224.616 362.614 224.241C362.25 223.866 361.755 223.654 361.24 223.653H309.548Z" fill="#E6E6E6"/>
<path d="M309.548 243.01C309.032 243.011 308.538 243.222 308.174 243.597C307.809 243.973 307.604 244.481 307.604 245.012C307.604 245.542 307.809 246.051 308.174 246.426C308.538 246.801 309.032 247.013 309.548 247.014H332.822C333.338 247.013 333.832 246.801 334.196 246.426C334.561 246.051 334.765 245.542 334.765 245.012C334.765 244.481 334.561 243.973 334.196 243.597C333.832 243.222 333.338 243.011 332.822 243.01H309.548Z" fill="#23A8F2"/>
</svg>
